<?xml version="1.0" encoding="utf-8"?>
<!-- Generator: Adobe Illustrator 25.4.1, SVG Export Plug-In . SVG Version: 6.00 Build 0)  -->
<svg version="1.1" id="Layer_1" xmlns="http://www.w3.org/2000/svg" xmlns:xlink="http://www.w3.org/1999/xlink" x="0px" y="0px"
	 viewBox="0 0 512 512" style="enable-background:new 0 0 512 512;" xml:space="preserve">
<style type="text/css">
	.st0{fill:#F5F3FA;}
</style>
<path class="st0" d="M480,352H346.5l-45.2,45.2c-12,12-28.1,18.8-45.2,18.8s-33.2-6.7-45.2-18.8L165.5,352H32c-17.7,0-32,14.3-32,32
	v96c0,17.7,14.3,32,32,32h448c17.7,0,32-14.3,32-32v-96C512,366.3,497.7,352,480,352z M432,456c-13.2,0-24-10.8-24-24s10.8-24,24-24
	s24,10.8,24,24S445.2,456,432,456z M233.4,374.6c6.2,6.3,14.4,9.4,22.6,9.4s16.4-3.1,22.6-9.4l128-128c12.5-12.5,12.5-32.8,0-45.2
	c-12.5-12.5-32.8-12.5-45.2,0L288,274.8V32c0-17.7-14.3-32-32-32s-32,14.3-32,32v242.8l-73.4-73.4c-12.5-12.5-32.8-12.5-45.2,0
	c-12.5,12.5-12.5,32.8,0,45.2L233.4,374.6z"/>
</svg>
