<svg id="Layer_1" data-name="Layer 1" xmlns="http://www.w3.org/2000/svg" viewBox="0 0 511.9 460.5"><defs><style>.cls-1{fill:#f5f3fa;}</style></defs><path class="cls-1" d="M66.7,28.7C44.4,41.9.4,92.4,0,105.7v22C0,155.5,26,180,49.6,180c28.3,0,52-23.5,52-51.4,0,27.9,22.7,51.4,51.1,51.4s50.4-23.5,50.4-51.4c0,27.9,24.3,51.4,52.6,51.4h.5c28.4,0,52.6-23.5,52.6-51.4,0,27.9,22.1,51.4,50.4,51.4s51.1-23.5,51.1-51.4c0,27.9,23.6,51.4,51.9,51.4,23.7,0,49.7-24.5,49.7-52.3v-22c-.5-13.2-44.4-63.7-66.8-77-69.4-2.5-117.5-2.9-189.1-2.9S86.6,26.9,66.7,28.7ZM202.8,166.8a61,61,0,0,1-10,12.8v.1a59.52,59.52,0,0,1-83.2-.1A53.89,53.89,0,0,1,100,167a59.19,59.19,0,0,1-10.3,12.6,59.24,59.24,0,0,1-41.6,17H48a17.51,17.51,0,0,1-5.6-1.2c-2.2,23.8-3.2,46.4-3.6,63v.1c-.1,8.4-.1,15.2-.2,24.8.5,49.8-4.9,161.4,22,188.8,41.7,9.7,118.3,14.1,195.1,14.2h.1c76.9-.1,153.5-4.5,195.1-14.2,26.9-27.4,21.5-139,22-188.8-.1-9.6-.1-16.4-.2-24.8v-.1c-.3-16.6-1.3-39.2-3.6-63a17,17,0,0,1-5.6,1.2h-.1a59.42,59.42,0,0,1-41.6-17h.1c-3.9-3.8-7.7-7.8-10.3-12.6h-.1a57.74,57.74,0,0,1-51.1,29.6,59.42,59.42,0,0,1-41.6-17A57.58,57.58,0,0,1,309,167l-.2-.3a55,55,0,0,1-9.8,12.8,59.42,59.42,0,0,1-41.6,17h-.1l-1.7-.1-1.7.1h-.1a59,59,0,0,1-41.5-17,54.29,54.29,0,0,1-9.7-12.6l-.2-.3ZM160,222.1c16.9.1,31.9,0,50.6,20.3a449.17,449.17,0,0,1,45.3-2.2c15.3,0,30.7.8,45.3,2.2,18.7-20.3,33.7-20.3,50.6-20.3h.1c8,0,40,0,62.2,62.6L438,370.6c17.7,63.9-5.7,65.5-34.8,65.5-43.3-1.6-67.3-33.1-67.3-64.6-24,4-52,5.9-80,5.9s-56-1.9-79.9-5.9c0,31.5-24,63-67.3,64.6-29.2-.1-52.7-1.6-34.9-65.5l23.9-85.9C120,222.1,152,222.1,160,222.1Zm96,49.2c-.1,0-45.6,41.9-53.8,56.7l29.8-1.2v26c0,1.3,12,.7,24,.2,12,.6,23.9,1.1,23.9-.2v-26l29.9,1.2C301.5,313.2,256,271.3,256,271.3Z" transform="translate(0 -25.8)"/></svg>