<?xml version="1.0" encoding="utf-8"?>
<!-- Generator: Adobe Illustrator 25.4.1, SVG Export Plug-In . SVG Version: 6.00 Build 0)  -->
<svg version="1.1" id="Layer_1" xmlns="http://www.w3.org/2000/svg" xmlns:xlink="http://www.w3.org/1999/xlink" x="0px" y="0px"
	 viewBox="0 0 512 512" style="enable-background:new 0 0 512 512;" xml:space="preserve">
<style type="text/css">
	.st0{fill:#FFFFFF;}
</style>
<g>
	<path class="st0" d="M66.7,28.7C44.4,41.9,0.4,92.4,0,105.7v22C0,155.5,26,180,49.6,180c28.3,0,52-23.5,52-51.4
		c0,27.9,22.7,51.4,51.1,51.4c28.3,0,50.4-23.5,50.4-51.4c0,27.9,24.3,51.4,52.6,51.4h0.5c28.4,0,52.6-23.5,52.6-51.4
		c0,27.9,22.1,51.4,50.4,51.4s51.1-23.5,51.1-51.4c0,27.9,23.6,51.4,51.9,51.4c23.7,0,49.7-24.5,49.7-52.3v-22
		c-0.5-13.2-44.4-63.7-66.8-77c-69.4-2.5-117.5-2.9-189.1-2.9C184.3,25.8,86.6,26.9,66.7,28.7L66.7,28.7z M202.8,166.8
		c-2.9,4.9-6.2,9.1-10,12.8v0.1c-10.7,10.4-25.4,16.9-41.6,16.9c-16.3,0-30.9-6.5-41.6-17c-3.9-3.8-6.9-7.8-9.6-12.6
		c-2.7,4.7-6.4,8.8-10.3,12.6c-10.7,10.5-25.4,17-41.6,17H48c-1.9,0-3.9-0.6-5.6-1.2c-2.2,23.8-3.2,46.4-3.6,63v0.1
		c-0.1,8.4-0.1,15.2-0.2,24.8c0.5,49.8-4.9,161.4,22,188.8c41.7,9.7,118.3,14.1,195.1,14.2h0.1c76.9-0.1,153.5-4.5,195.1-14.2
		c26.9-27.4,21.5-139,22-188.8c-0.1-9.6-0.1-16.4-0.2-24.8v-0.1c-0.3-16.6-1.3-39.2-3.6-63c-1.6,0.6-3.7,1.2-5.6,1.2h-0.1
		c-16.2,0-30.8-6.5-41.6-17h0.1c-3.9-3.8-7.7-7.8-10.3-12.6h-0.1c-2.7,4.7-5.7,8.8-9.5,12.6c-10.7,10.5-25.3,17-41.6,17
		c-16.2,0-30.8-6.5-41.6-17c-3.8-3.7-7.1-7.9-9.8-12.6l-0.2-0.3c-2.7,4.9-6.1,9.2-9.8,12.8c-10.8,10.5-25.4,17-41.6,17h-0.1
		l-1.7-0.1l-1.7,0.1h-0.1c-16.2,0-30.8-6.5-41.5-17c-3.8-3.7-7.1-7.9-9.7-12.6l-0.2-0.3L202.8,166.8z M160,222.1
		c16.9,0.1,31.9,0,50.6,20.3c14.7-1.5,30-2.2,45.3-2.2s30.7,0.8,45.3,2.2c18.7-20.3,33.7-20.3,50.6-20.3h0.1c8,0,40,0,62.2,62.6
		l23.9,85.9c17.7,63.9-5.7,65.5-34.8,65.5c-43.3-1.6-67.3-33.1-67.3-64.6c-24,4-52,5.9-80,5.9s-56-1.9-79.9-5.9
		c0,31.5-24,63-67.3,64.6c-29.2-0.1-52.7-1.6-34.9-65.5l23.9-85.9C120,222.1,152,222.1,160,222.1L160,222.1z M256,271.3
		c-0.1,0-45.6,41.9-53.8,56.7l29.8-1.2v26c0,1.3,12,0.7,24,0.2c12,0.6,23.9,1.1,23.9-0.2v-26l29.9,1.2
		C301.5,313.2,256,271.3,256,271.3z"/>
</g>
</svg>
