<?xml version="1.0" encoding="utf-8"?>
<!-- Generator: Adobe Illustrator 25.4.1, SVG Export Plug-In . SVG Version: 6.00 Build 0)  -->
<svg version="1.1" id="Calque_1" xmlns="http://www.w3.org/2000/svg" xmlns:xlink="http://www.w3.org/1999/xlink" x="0px" y="0px"
	 viewBox="0 0 256 256" style="enable-background:new 0 0 256 256;" xml:space="preserve">
<style type="text/css">
	.st0{fill:#F5F3FA;}
</style>
<g>
	<path class="st0" d="M128,256C57.3,256,0,198.7,0,128S57.3,0,128,0s128,57.3,128,128S198.7,256,128,256L128,256z M240,128h-64
		c0,17-1.3,33.2-3.5,48h56.3C235.8,161.4,240,145.3,240,128L240,128z M219.4,192h-49.8c-4,18.3-9.7,33.8-16.4,45
		C180.5,230.6,203.7,214.2,219.4,192L219.4,192z M96.5,112h63.1c-0.5-11.4-1.5-22-2.9-32H99.3C98,90,96.9,100.6,96.5,112L96.5,112z
		 M96,128c0,17.2,1.2,33.4,3.2,48h57.6c2-14.6,3.2-30.7,3.2-48H96L96,128z M128,240c10.9,0,20.4-19,26.2-48h-52.4
		C107.6,220.9,117.1,240,128,240L128,240z M102.9,236.9c-6.8-11.1-12.4-26.6-16.4-44.9H36.6C52.3,214.2,75.5,230.6,102.9,236.9
		L102.9,236.9z M16,128L16,128L16,128L16,128L16,128z M27.2,176h56.3c-2.3-14.8-3.5-31-3.5-48H16C16,145.3,20.2,161.4,27.2,176
		L27.2,176z M80.4,112c0.5-11.2,1.6-21.9,3.2-32H27.1c-4.7,10-8.1,20.7-9.7,32H80.4L80.4,112z M36.5,64h50.1
		c4-18.3,9.6-33.8,16.4-45C75.5,25.4,52.1,41.7,36.5,64L36.5,64z M128,16c-10.8,0-20.2,19.1-26,48h52C148.2,35.1,138.8,16,128,16
		L128,16z M153.1,19c6.8,11.1,12.4,26.6,16.4,45h50.1C203.9,41.7,180.5,25.4,153.1,19L153.1,19z M228.9,80h-56.5
		c1.5,10.1,2.7,20.8,3.2,32h63C237,100.7,233.6,89.9,228.9,80L228.9,80z"/>
</g>
</svg>
