<?xml version="1.0" encoding="utf-8"?>
<!-- Generator: Adobe Illustrator 25.4.1, SVG Export Plug-In . SVG Version: 6.00 Build 0)  -->
<svg version="1.1" id="Layer_1" xmlns="http://www.w3.org/2000/svg" xmlns:xlink="http://www.w3.org/1999/xlink" x="0px" y="0px"
	 viewBox="0 0 256 256" style="enable-background:new 0 0 256 256;" xml:space="preserve">
<style type="text/css">
	.st0{fill:#F5F3FA;}
</style>
<g transform="translate(1.4065934065934016 1.4065934065934016) scale(2.81 2.81)">
	<path class="st0" d="M88.1,23.3c-1-3.9-4.1-6.9-8-8c-7-1.9-35.2-1.9-35.2-1.9s-28.1,0-35.2,1.9c-3.9,1-6.9,4.1-8,8
		C0,30.4,0,45,0,45s0,14.6,1.9,21.7c1,3.9,4.1,6.9,8,8c7,1.9,35.2,1.9,35.2,1.9s28.1,0,35.2-1.9c3.9-1,6.9-4.1,8-8
		C90,59.6,90,45,90,45S90,30.4,88.1,23.3z M36,58.5v-27L59.4,45L36,58.5z"/>
</g>
</svg>
