<svg id="Logo" xmlns="http://www.w3.org/2000/svg" viewBox="0 0 325.7 367.8"><defs><style>.cls-1{fill:#fff;}</style></defs><path id="path6" class="cls-1" d="M325.7,257.5V85.8L177,0V65.9l58.2,33.7c2.3,1.5,2.3,4.6,0,5.4l-69,39.8a5.78,5.78,0,0,1-6.1,0L91.1,105c-2.3-.8-2.3-4.6,0-5.4l58.2-33.7V0L0,85.8V257.4l56.7-33V157c0-2.3,3.1-3.8,4.6-3.1l69,39.8a5.84,5.84,0,0,1,3.1,5.4v79.7c0,2.3-3.1,3.8-4.6,3.1L70.6,248.2l-56.7,33,148.7,86.6L311.1,282l-56.7-33-58.2,33.7c-2.3,1.5-4.6,0-4.6-3.1V200a6.44,6.44,0,0,1,3.1-5.4l69-39.8c2.3-1.5,4.6,0,4.6,3.1v67.4Z"/></svg>