<?xml version="1.0" standalone="no"?>
<!DOCTYPE svg PUBLIC "-//W3C//DTD SVG 20010904//EN"
 "http://www.w3.org/TR/2001/REC-SVG-20010904/DTD/svg10.dtd">
<svg version="1.0" xmlns="http://www.w3.org/2000/svg"
 width="750.000000pt" height="750.000000pt" viewBox="0 0 750.000000 750.000000"
 preserveAspectRatio="xMidYMid meet">
<metadata>
Created by potrace 1.14, written by Peter Selinger 2001-2017
</metadata>
<g transform="translate(0.000000,750.000000) scale(0.100000,-0.100000)"
fill="#000000" stroke="none">
<path d="M3615 6655 c-23 -38 -76 -126 -116 -195 -41 -69 -78 -132 -84 -141
-5 -9 -22 -38 -38 -65 -15 -27 -36 -62 -47 -79 -11 -16 -23 -37 -27 -45 -4 -8
-39 -69 -78 -135 -40 -66 -124 -208 -187 -315 -63 -107 -169 -285 -234 -395
-65 -110 -121 -204 -123 -210 -2 -5 -12 -21 -21 -35 -9 -14 -28 -45 -42 -70
-14 -25 -39 -68 -56 -96 l-30 -52 67 -113 c200 -335 307 -516 317 -534 29 -52
56 -98 97 -166 24 -41 83 -141 132 -222 48 -82 91 -145 95 -140 7 7 156 257
220 368 10 17 127 215 261 440 133 226 277 469 319 540 42 72 131 222 198 335
l121 205 1571 0 1570 0 -2 595 -3 595 -1918 0 -1919 0 -43 -70z"/>
<path d="M2 3155 l3 -2380 608 0 608 0 -1 1225 c-1 674 -1 1281 0 1349 l0 125
55 -93 c30 -51 55 -95 55 -96 0 -2 23 -40 50 -84 27 -44 50 -83 50 -87 0 -3 8
-18 19 -32 10 -15 72 -117 136 -227 65 -110 177 -299 248 -420 72 -121 165
-278 207 -350 42 -71 150 -254 239 -405 90 -151 171 -288 181 -305 59 -101
190 -321 266 -450 l90 -150 421 0 422 0 15 30 c9 16 25 44 35 60 10 17 63 107
118 200 97 165 435 735 453 765 6 8 43 71 83 140 67 114 226 382 270 455 9 17
20 38 23 48 4 9 10 17 14 17 5 0 12 9 15 21 4 11 30 59 59 107 29 48 112 186
183 307 72 121 159 268 194 328 35 59 69 115 74 125 6 9 37 62 70 117 33 55
65 110 71 122 7 12 27 47 46 78 l33 55 432 0 433 0 0 -37 c1 -47 1 -1676 0
-1718 l0 -30 -606 0 c-396 0 -608 -3 -614 -10 -7 -10 -74 -140 -350 -680 -73
-143 -159 -310 -191 -372 -33 -61 -59 -115 -59 -120 0 -4 684 -8 1520 -8
l1520 0 0 2082 0 2083 -35 0 c-19 1 -109 1 -200 1 -91 0 -702 0 -1359 -1
l-1195 0 -73 -122 c-40 -68 -75 -127 -77 -133 -2 -5 -12 -21 -21 -35 -9 -14
-28 -45 -42 -70 -14 -25 -67 -115 -118 -200 -51 -85 -100 -168 -110 -185 -9
-16 -70 -120 -135 -230 -65 -110 -153 -258 -195 -330 -149 -252 -473 -800
-492 -830 -10 -16 -21 -37 -25 -45 -3 -8 -19 -34 -35 -57 -15 -23 -28 -43 -28
-46 0 -2 -28 -51 -63 -109 l-62 -105 -100 169 c-55 94 -111 189 -125 212 -14
23 -58 98 -98 167 -41 68 -96 162 -124 209 -61 102 -298 502 -324 547 -11 17
-40 67 -65 110 -25 43 -104 177 -176 298 -223 377 -295 499 -313 530 -10 17
-46 77 -80 135 -35 58 -71 119 -80 135 -22 38 -223 378 -276 465 -21 36 -45
76 -52 90 l-13 25 -704 0 -705 0 2 -2380z"/>
</g>
</svg>
