<svg version="1.1" id="Layer_1" xmlns="http://www.w3.org/2000/svg" xmlns:xlink="http://www.w3.org/1999/xlink" x="0px" y="0px" viewBox="0 0 306 344.4" style="enable-background:new 0 0 306 344.4;" xml:space="preserve"><path d="M302.1,86.1L302.1,86.1c-2.4-4.2-5.7-7.8-9.4-9.9l-126.5-73C158.9-1,147-1,139.7,3.2l-126.5,73C6,80.4,0,90.7,0,99.1v146.1c0,4.2,1.5,8.9,3.9,13.1l0,0c2.4,4.2,5.7,7.8,9.4,9.9l126.5,73c7.3,4.2,19.2,4.2,26.5,0l126.5-73c7.3-4.2,13.2-14.5,13.2-23V99.1C306,94.9,304.5,90.2,302.1,86.1z M153,274.2c-56.2,0-102-45.8-102-102s45.8-102,102-102c36.3,0,70.1,19.5,88.3,51l-44.1,25.5c-9.1-15.7-26-25.5-44.2-25.5c-28.1,0-51,22.9-51,51s22.9,51,51,51c18.2,0,35.1-9.8,44.2-25.5l44.1,25.5C223.1,254.6,189.3,274.2,153,274.2z M255,177.8h-11.3v11.3h-11.3v-11.3H221v-11.3h11.3v-11.3h11.3v11.3H255V177.8z M297.5,177.8h-11.3v11.3h-11.3v-11.3h-11.3v-11.3h11.3v-11.3h11.3v11.3h11.3V177.8z"/></svg>