<svg id="Calque_1" data-name="Calque 1" xmlns="http://www.w3.org/2000/svg" viewBox="0 0 2200.98 2475.37"><defs><style>.cls-1{fill:#fff;}</style></defs><rect class="cls-1" x="1819.24" y="1195.52" width="88.15" height="87.47"/><path class="cls-1" d="M2323.37,629.24q-26.45-46.79-79.33-77.3Q1804.65,298.68,1364.59,45.43c-79.33-45.43-155.28-44.07-233.93,2C1014,116,429.55,450.91,256,551.94,184.09,593.3,149.51,657,149.51,739.77v1019.8c0,40.68,8.81,76.62,25.76,107.81,17.63,31.87,44.76,59,80.69,80,174.27,101,758.07,435.31,874.7,504.48,78.65,46.1,155.28,48.13,233.93,2Q1804,2199.63,2244,1947.39c36.61-21,63.06-47.46,80.68-80,17-31.19,25.77-67.13,25.77-107.81V739.09C2350.49,697.73,2341.68,660.43,2323.37,629.24Zm-1074,1350.7c-271.22,0-508.54-147.82-634.66-366.83a728.37,728.37,0,0,1-97-364.12C517.7,845.54,844.52,518,1248.64,518c270.55,0,506.52,147.14,633.31,365.47l-318,183.08c-63.06-108.49-180.36-181.72-314.62-181.72-201.38,0-364.12,162.73-364.12,364.12,0,65.77,17.63,126.8,48.15,180.36a362.59,362.59,0,0,0,316,183.76c136.29,0,255-75.27,317.33-185.79l318,183.75C1758.55,1831.44,1521.23,1979.94,1249.32,1979.94Zm939.12-684.85v72.56h-59v59h-72.55v-59h-88.15v59h-72.55v-59h-58.31v-72.56h58.31v-87.46h-58.31v-72.56h58.31v-59h72.55v59h88.15v-59h72.55v59h59v72.56h-59v87.46Z" transform="translate(-149.51 -12.11)"/></svg>