<svg version="1.1" id="Calque_1" xmlns="http://www.w3.org/2000/svg" xmlns:xlink="http://www.w3.org/1999/xlink" x="0px" y="0px" viewBox="0 0 330 333" style="enable-background:new 0 0 330 333;" xml:space="preserve"><path class="st0" d="M329.8,204.9c-4.7,22.7-25.7,81-92.5,112.6l-26.8-30.2l-45.3,45.5c-25.8-0.3-51.1-6.6-74.1-18.4 c-22.9-11.8-42.8-28.7-58.2-49.4c4.8,1.5,9.8,2.4,14.8,2.8c7.4,0.1,15.5-2.6,15.5-15V129.8c0.1-3.2-0.5-6.3-1.9-9.2 c-1.3-2.9-3.3-5.4-5.8-7.4c-2.5-2-5.4-3.3-8.5-4c-3.1-0.7-6.3-0.6-9.4,0.2C16.8,114.4,0,166.7,0,166.7c-0.2-24.2,4.8-48.1,14.7-70.1 c9.9-22,24.6-41.6,42.9-57.4c24.1-20.8,53.5-34.4,85-39.2c-22.9,13.1-35.8,34.3-35.8,52.2c0,28.7,17.3,25.3,22.4,21v165.9 c0.9,2.1,2,4,3.4,5.8c2.3,3.2,5.3,5.7,8.8,7.5c3.5,1.8,7.3,2.7,11.2,2.6c17.3,0,39.8-19.8,39.8-19.8V101c0-13.7-10.3-30.2-20.6-35.8 c0,0,19.1-3.4,33.8,7.9c2.8-3.4,5.7-6.6,8.8-9.7c34.4-33.7,66.7-43.3,93.7-48.1c0,0-49,38.5-49,90.2c0,38.4,1,132.2,1,132.2 C278.3,255.3,305.4,229.9,329.8,204.9z"/></svg>
