<?xml version="1.0" encoding="utf-8"?>
<!-- Generator: Adobe Illustrator 25.4.1, SVG Export Plug-In . SVG Version: 6.00 Build 0)  -->
<svg version="1.1" id="Calque_1" xmlns="http://www.w3.org/2000/svg" xmlns:xlink="http://www.w3.org/1999/xlink" x="0px" y="0px"
	 viewBox="0 0 128 141" style="enable-background:new 0 0 128 141;" xml:space="preserve">
<style type="text/css">
	.st0{fill:#D1D1D1;}
	.st1{fill:#ADADAD;}
	.st2{fill:#939699;}
</style>
<path class="st0" d="M64,22.1c-35.3,0-64-4.9-64-11V130c0,6.1,28.7,11,64,11s64-4.9,64-11V11C128,17.1,99.4,22.1,64,22.1z"/>
<path class="st1" d="M0,11v119c0,6.1,28.7,11,64,11V22.1C28.7,22.1,0,17.1,0,11z"/>
<path class="st1" d="M119,16.7v118.9c5.7-1.6,9-3.6,9-5.6V11C128,13.1,124.7,15,119,16.7z"/>
<ellipse class="st2" cx="64" cy="11" rx="64" ry="11"/>
<path class="st2" d="M0,85.8c0,6.1,28.7,11,64,11s64-4.9,64-11v9c0,6.1-28.6,11-64,11s-64-4.9-64-11V85.8z"/>
<path class="st2" d="M0,46.2c0,6.1,28.7,11,64,11s64-4.9,64-11v9c0,6.1-28.6,11-64,11s-64-4.9-64-11V46.2z"/>
</svg>
