<?xml version="1.0" encoding="utf-8"?>
<!-- Generator: Adobe Illustrator 25.4.1, SVG Export Plug-In . SVG Version: 6.00 Build 0)  -->
<svg version="1.1"
	 id="Logo" inkscape:version="1.0.2 (e86c870879, 2021-01-15)" sodipodi:docname="Unity_2021.svg" xmlns:cc="http://creativecommons.org/ns#" xmlns:dc="http://purl.org/dc/elements/1.1/" xmlns:inkscape="http://www.inkscape.org/namespaces/inkscape" xmlns:rdf="http://www.w3.org/1999/02/22-rdf-syntax-ns#" xmlns:sodipodi="http://sodipodi.sourceforge.net/DTD/sodipodi-0.dtd" xmlns:svg="http://www.w3.org/2000/svg"
	 xmlns="http://www.w3.org/2000/svg" xmlns:xlink="http://www.w3.org/1999/xlink" x="0px" y="0px" viewBox="0 0 324.9 367.8"
	 style="enable-background:new 0 0 324.9 367.8;" xml:space="preserve">
<style type="text/css">
	.st0{display:none;fill:#4C4C4C;}
	.st1{fill:#808080;}
	.st2{fill:#4C4C4C;}
</style>
<sodipodi:namedview  bordercolor="#666666" borderopacity="1" gridtolerance="10" guidetolerance="10" id="namedview15" inkscape:current-layer="Logo" inkscape:cx="481.73464" inkscape:cy="72.632202" inkscape:pageopacity="0" inkscape:pageshadow="2" inkscape:window-height="705" inkscape:window-maximized="1" inkscape:window-width="1366" inkscape:window-x="-8" inkscape:window-y="-8" inkscape:zoom="0.5" objecttolerance="10" pagecolor="#ffffff" showgrid="false">
	</sodipodi:namedview>
<g id="g849">
	<path id="path6" class="st0" d="M325.7,257.5V85.8L177,0v65.9l58.2,33.7c2.3,1.5,2.3,4.6,0,5.4l-69,39.8c-2.3,1.5-4.6,0.8-6.1,0
		l-69-39.8c-2.3-0.8-2.3-4.6,0-5.4l58.2-33.7V0L0,85.8v171.6v-0.8v0.8l56.7-33V157c0-2.3,3.1-3.8,4.6-3.1l69,39.8
		c2.3,1.5,3.1,3.1,3.1,5.4v79.7c0,2.3-3.1,3.8-4.6,3.1l-58.2-33.7l-56.7,33l148.7,86.6L311.1,282l-56.7-33l-58.2,33.7
		c-2.3,1.5-4.6,0-4.6-3.1V200c0-2.3,1.5-4.6,3.1-5.4l69-39.8c2.3-1.5,4.6,0,4.6,3.1v67.4L325.7,257.5z"/>
	<path id="path8" d="M162.5,367.8L311.1,282l-56.7-33l-58.2,33.7c-2.3,1.5-4.6,0-4.6-3.1V200c0-2.3,1.5-4.6,3.1-5.4l69-39.8
		c2.3-1.5,4.6,0,4.6,3.1v67.4l56.7,33V85.8l-162.5,94.3L162.5,367.8L162.5,367.8z"/>
	<path id="path10" class="st1" d="M177,0v65.9l58.2,33.7c2.3,1.5,2.3,4.6,0,5.4l-69,39.8c-2.3,1.5-4.6,0.8-6.1,0l-69-39.8
		c-2.3-0.8-2.3-4.6,0-5.4l58.2-33.7V0L0,85.8l162.5,94.3L325,85.8L177,0z"/>
	<path id="path12" class="st2" d="M129.5,282.8L71.3,249l-56.7,33l148.7,85.8V180.1L0,85.8v171.6v-0.8v0.8l56.7-33V157
		c0-2.3,3.1-3.8,4.6-3.1l69,39.8c2.3,1.5,3.1,3.1,3.1,5.4v79.7C134.1,282,131.8,284.3,129.5,282.8z"/>
</g>
</svg>
