<?xml version="1.0" encoding="utf-8"?>
<!-- Generator: Adobe Illustrator 25.4.1, SVG Export Plug-In . SVG Version: 6.00 Build 0)  -->
<svg version="1.1" id="Calque_1" xmlns="http://www.w3.org/2000/svg" xmlns:xlink="http://www.w3.org/1999/xlink" x="0px" y="0px"
	 viewBox="0 0 512 512" style="enable-background:new 0 0 512 512;" xml:space="preserve">
<style type="text/css">
	.st0{fill:#FFAF10;}
</style>
<path class="st0" d="M30.5,0l41,460l184,52l185-52l41-460H30.5z M161.5,423.9l-46.9-13L84.4,62.3h171.9l-17.8,67.8h-79.1l6,70.2H220
	l-18,69h-30.9l7.6,88.4L161.5,423.9z M396.8,411l-140.5,38.7h-1.2l-60.9-16.8l17.3-66.3l43.6,11.7l76.3-20.6l8.5-88.4H237.1l18-69
	H346l6-70.2h-78.3l17.7-67.8h135.7L396.8,411z"/>
</svg>
