<svg id="Calque_1" data-name="Calque 1" xmlns="http://www.w3.org/2000/svg" viewBox="0 0 105 105"><defs><style>.cls-1,.cls-3,.cls-4,.cls-5,.cls-6,.cls-7,.cls-8{fill:#f74b00;}.cls-1,.cls-10,.cls-11,.cls-2,.cls-3,.cls-4,.cls-5,.cls-6,.cls-7,.cls-8,.cls-9{stroke:#f74b00;}.cls-1,.cls-10,.cls-11,.cls-3,.cls-4,.cls-5,.cls-6,.cls-7,.cls-8,.cls-9{stroke-linejoin:round;}.cls-2{fill:none;stroke-width:9px;}.cls-3{stroke-width:3px;}.cls-4{stroke-width:3px;}.cls-5{stroke-width:3px;}.cls-6{stroke-width:3px;}.cls-7{stroke-width:3px;}.cls-8{stroke-width:3px;}.cls-9{stroke-width:6px;}.cls-10{stroke-width:6px;}.cls-11{stroke-width:6px;}</style></defs><g id="logo"><path id="r" class="cls-1" d="M44.5,38.5h13c8,0,8,8,0,8h-13Zm-31,37h40v-11h-9v-8h10c11,0,5,19,14,19h25v-19h-6v2c0,8-9,7-10,2s-5-9-6-9c15-8,6-24-6-24h-47v11h10v26h-15Z" transform="translate(-0.5 -0.5)"/><g id="gear"><circle class="cls-2" cx="52.5" cy="52.5" r="43"/><g id="cogs"><polygon id="cog" class="cls-3" points="98.5 55.5 103.5 52.5 98.5 49.5 98.5 55.5"/><polygon id="cog-2" data-name="cog" class="cls-4" points="97.03 64.42 102.52 62.45 98.2 58.53 97.03 64.42"/><polygon id="cog-3" data-name="cog" class="cls-5" points="93.85 72.88 99.62 72.02 96.15 67.33 93.85 72.88"/><polygon id="cog-4" data-name="cog" class="cls-6" points="89.08 80.55 94.91 80.83 92.41 75.56 89.08 80.55"/><polygon id="cog-5" data-name="cog" class="cls-7" points="82.91 87.15 88.56 88.56 87.15 82.91 82.91 87.15"/><polygon id="cog-6" data-name="cog" class="cls-6" points="75.56 92.41 80.83 94.91 80.55 89.08 75.56 92.41"/><polygon id="cog-7" data-name="cog" class="cls-8" points="67.33 96.15 72.02 99.62 72.88 93.85 67.33 96.15"/><polygon id="cog-8" data-name="cog" class="cls-4" points="58.53 98.2 62.45 102.52 64.42 97.03 58.53 98.2"/><polygon id="cog-9" data-name="cog" class="cls-3" points="49.5 98.5 52.5 103.5 55.5 98.5 49.5 98.5"/><polygon id="cog-10" data-name="cog" class="cls-4" points="40.58 97.03 42.55 102.52 46.47 98.2 40.58 97.03"/><polygon id="cog-11" data-name="cog" class="cls-8" points="32.13 93.85 32.98 99.62 37.67 96.15 32.13 93.85"/><polygon id="cog-12" data-name="cog" class="cls-6" points="24.45 89.08 24.17 94.91 29.44 92.41 24.45 89.08"/><polygon id="cog-13" data-name="cog" class="cls-7" points="17.85 82.91 16.44 88.56 22.09 87.15 17.85 82.91"/><polygon id="cog-14" data-name="cog" class="cls-6" points="12.59 75.56 10.1 80.83 15.92 80.55 12.59 75.56"/><polygon id="cog-15" data-name="cog" class="cls-5" points="8.85 67.33 5.38 72.02 11.15 72.88 8.85 67.33"/><polygon id="cog-16" data-name="cog" class="cls-4" points="6.8 58.53 2.48 62.45 7.97 64.42 6.8 58.53"/><polygon id="cog-17" data-name="cog" class="cls-3" points="6.5 49.5 1.5 52.5 6.5 55.5 6.5 49.5"/><polygon id="cog-18" data-name="cog" class="cls-4" points="7.97 40.58 2.48 42.55 6.8 46.47 7.97 40.58"/><polygon id="cog-19" data-name="cog" class="cls-5" points="11.15 32.13 5.38 32.98 8.85 37.67 11.15 32.13"/><polygon id="cog-20" data-name="cog" class="cls-6" points="15.92 24.45 10.1 24.17 12.59 29.44 15.92 24.45"/><polygon id="cog-21" data-name="cog" class="cls-7" points="22.09 17.85 16.44 16.44 17.85 22.09 22.09 17.85"/><polygon id="cog-22" data-name="cog" class="cls-6" points="29.44 12.59 24.17 10.1 24.45 15.92 29.44 12.59"/><polygon id="cog-23" data-name="cog" class="cls-8" points="37.67 8.85 32.98 5.38 32.13 11.15 37.67 8.85"/><polygon id="cog-24" data-name="cog" class="cls-4" points="46.47 6.8 42.55 2.48 40.58 7.97 46.47 6.8"/><polygon id="cog-25" data-name="cog" class="cls-3" points="55.5 6.5 52.5 1.5 49.5 6.5 55.5 6.5"/><polygon id="cog-26" data-name="cog" class="cls-4" points="64.42 7.97 62.45 2.48 58.53 6.8 64.42 7.97"/><polygon id="cog-27" data-name="cog" class="cls-8" points="72.88 11.15 72.02 5.38 67.33 8.85 72.88 11.15"/><polygon id="cog-28" data-name="cog" class="cls-6" points="80.55 15.92 80.83 10.1 75.56 12.59 80.55 15.92"/><polygon id="cog-29" data-name="cog" class="cls-7" points="87.15 22.09 88.56 16.44 82.91 17.85 87.15 22.09"/><polygon id="cog-30" data-name="cog" class="cls-6" points="92.41 29.44 94.91 24.17 89.08 24.45 92.41 29.44"/><polygon id="cog-31" data-name="cog" class="cls-5" points="96.15 37.67 99.62 32.98 93.85 32.13 96.15 37.67"/><polygon id="cog-32" data-name="cog" class="cls-4" points="98.2 46.47 102.52 42.55 97.03 40.58 98.2 46.47"/></g><g id="mounts"><polygon id="mount" class="cls-9" points="45.5 10.5 52.5 17.5 59.5 10.5 45.5 10.5"/><polygon id="mount-2" data-name="mount" class="cls-10" points="90.28 32.86 85.79 41.68 94.61 46.18 90.28 32.86"/><polygon id="mount-3" data-name="mount" class="cls-11" points="82.85 82.36 73.07 80.82 71.52 90.59 82.85 82.36"/><polygon id="mount-4" data-name="mount" class="cls-11" points="33.48 90.59 31.93 80.82 22.15 82.36 33.48 90.59"/><polygon id="mount-5" data-name="mount" class="cls-10" points="10.39 46.18 19.21 41.68 14.72 32.86 10.39 46.18"/></g></g></g></svg>