<?xml version="1.0" encoding="utf-8"?>
<!-- Generator: Adobe Illustrator 25.4.1, SVG Export Plug-In . SVG Version: 6.00 Build 0)  -->
<svg version="1.1" id="Calque_1" xmlns="http://www.w3.org/2000/svg" xmlns:xlink="http://www.w3.org/1999/xlink" x="0px" y="0px"
	 viewBox="0 0 128 141" style="enable-background:new 0 0 128 141;" xml:space="preserve">
<style type="text/css">
	.st0{fill:#939699;}
	.st1{fill:#D1D1D1;}
	.st2{fill:#ADADAD;}
</style>
<ellipse class="st0" cx="64" cy="11" rx="64" ry="11"/>
<g>
	<path class="st1" d="M119,51.8V16.7c5.1-1.5,8.3-3.2,8.9-5.1C126,17.4,98.2,22.1,64,22.1v35.1C87.4,57.2,107.8,55.1,119,51.8z"/>
	<path class="st1" d="M64,96.8c23.4,0,43.8-2.1,55-5.4V60.8c-11.2,3.2-31.6,5.4-55,5.4V96.8z"/>
	<path class="st1" d="M119,135.6v-35.2c-11.2,3.2-31.6,5.4-55,5.4V141c33.5,0,61.1-4.4,63.8-10.1C126.9,132.6,123.8,134.2,119,135.6
		z"/>
	<path class="st1" d="M127.9,130.5c0,0.1,0,0.1-0.1,0.2C127.9,130.6,127.9,130.5,127.9,130.5z"/>
	<path class="st1" d="M127.9,11.5c0-0.2,0.1-0.3,0.1-0.5C128,11.2,128,11.3,127.9,11.5z"/>
	<path class="st2" d="M64,22.1c-35.3,0-64-5-64-11.1v0.1C0,17.2,28.7,22.1,64,22.1z"/>
	<path class="st2" d="M64,96.8V66.2c-35.4,0-64-4.9-64-11v30.6C0,91.9,28.7,96.8,64,96.8z"/>
	<path class="st2" d="M64,57.2V22.1c-35.3,0-64-4.9-64-11v35.1C0,52.3,28.7,57.2,64,57.2z"/>
	<path class="st2" d="M0,94.8V130c0,6.1,28.7,11,64,11v-35.2C28.6,105.8,0,100.9,0,94.8z"/>
	<path class="st2" d="M128,130c0,0.2,0,0.3-0.1,0.5C128,130.3,128,130.2,128,130z"/>
	<path class="st2" d="M127.9,11.6v-0.1C127.9,11.6,127.9,11.6,127.9,11.6z"/>
	<path class="st2" d="M127.9,130.7c0,0.1-0.1,0.2-0.1,0.2C127.8,130.8,127.8,130.8,127.9,130.7z"/>
	<path class="st2" d="M119,100.4v35.2c4.8-1.4,7.9-3,8.8-4.7c0-0.1,0.1-0.2,0.1-0.2c0-0.1,0-0.1,0.1-0.2c0-0.2,0.1-0.3,0.1-0.5V94.8
		C128,96.9,124.7,98.8,119,100.4z"/>
	<path class="st2" d="M119,60.8v30.6c5.7-1.6,9-3.6,9-5.6V55.2C128,57.3,124.7,59.2,119,60.8z"/>
	<path class="st2" d="M127.9,11.5v0.1c-0.6,1.9-3.8,3.5-8.9,5.1v35.1c5.7-1.6,9-3.6,9-5.6V11C128,11.2,128,11.3,127.9,11.5z"/>
</g>
</svg>
