<?xml version="1.0" encoding="utf-8"?>
<!-- Generator: Adobe Illustrator 25.4.1, SVG Export Plug-In . SVG Version: 6.00 Build 0)  -->
<svg version="1.1" id="Layer_1" xmlns="http://www.w3.org/2000/svg" xmlns:xlink="http://www.w3.org/1999/xlink" x="0px" y="0px"
	 viewBox="0 0 630 630" style="enable-background:new 0 0 630 630;" xml:space="preserve">
<style type="text/css">
	.st0{fill:#F5F3FA;}
</style>
<g>
	<path class="st0" d="M328.4,346.9c1.2-21,11.5-39.5,27-52.6c15.2-12.9,35.7-20.7,58-20.7s42.8,7.9,58,20.7
		c15.5,13.1,25.8,31.6,27,52.6c1.2,21.6-7.5,41.6-22.7,56.5c-15.5,15.1-37.6,24.6-62.3,24.6c-24.7,0-46.8-9.5-62.3-24.6
		C335.9,388.5,327.2,368.5,328.4,346.9L328.4,346.9z"/>
	<path class="st0" d="M193.1,389.4c0.1,8.2,2.8,24.2,6.7,36.6c8.3,26.4,22.3,50.8,41.8,72.3c20,22.1,44.6,39.9,73.1,52.5
		c29.9,13.2,62.3,20,96,19.9c33.6,0,66-6.9,95.9-20.3c28.5-12.7,53.1-30.6,73-52.7c19.5-21.6,33.5-46.1,41.8-72.4
		c4.2-13.3,6.8-26.9,7.8-40.4c1-13.4,0.6-26.8-1.3-40.2c-3.7-26.1-12.7-50.6-26.6-72.9c-12.7-20.5-29.1-38.5-48.6-53.6l0,0
		l-196.6-151c-0.2-0.1-0.3-0.3-0.5-0.4c-12.9-9.9-34.6-9.9-48.8,0.1c-14.3,10-16,26.6-3.2,37.1l-0.1,0.1l82,66.7l-249.9,0.3h-0.3
		c-20.7,0-40.5,13.6-44.4,30.7c-4,17.5,10,31.9,31.5,32v0.1l126.7-0.2L22.9,407.2c-0.3,0.2-0.6,0.4-0.9,0.6
		C0.7,424.2-6.2,451.3,7.2,468.5c13.6,17.5,42.6,17.5,64.2,0.1l123.4-101C194.7,367.6,192.9,381.3,193.1,389.4L193.1,389.4z
		 M510.1,435.1c-25.4,25.9-61,40.6-99.5,40.7c-38.6,0.1-74.2-14.5-99.6-40.3c-12.4-12.6-21.5-27.1-27.2-42.5
		c-5.5-15.2-7.7-31.3-6.2-47.5c1.3-15.9,6.1-31,13.6-44.7c7.4-13.5,17.6-25.7,30.2-36c24.7-20.1,56.2-31,89.1-31.1
		c32.9,0,64.4,10.8,89.1,30.8c12.6,10.3,22.8,22.4,30.2,35.8c7.6,13.7,12.3,28.8,13.7,44.7c1.4,16.2-0.7,32.3-6.3,47.5
		C531.6,407.9,522.5,422.4,510.1,435.1L510.1,435.1z"/>
</g>
</svg>
