<?xml version="1.0" encoding="utf-8"?>
<!-- Generator: Adobe Illustrator 25.4.1, SVG Export Plug-In . SVG Version: 6.00 Build 0)  -->
<svg version="1.1" id="Layer_1" xmlns="http://www.w3.org/2000/svg" xmlns:xlink="http://www.w3.org/1999/xlink" x="0px" y="0px"
	 viewBox="0 0 2222 2500" style="enable-background:new 0 0 2222 2500;" xml:space="preserve">
<style type="text/css">
	.st0{fill:#F5F3FA;}
</style>
<path class="st0" d="M2218.3,735.3L2218.3,735.3c0-41.9-9-79-27.1-110.8c-17.8-31.3-44.5-57.5-80.3-78.2
	c-295.3-170.3-590.9-340.1-886.2-510.5c-79.6-46-156.8-44.3-235.8,2.3c-117.5,69.3-706.1,406.5-881.4,508.1
	C35.3,588.1,0.1,652.1,0.1,735.3C0,1077.7,0.1,1420.2,0,1762.6c0,41,8.6,77.3,25.9,108.6c17.8,32.2,44.9,59.1,81.5,80.3
	c175.4,101.6,764,438.7,881.5,508.1c79,46.6,156.2,48.3,235.8,2.3c295.2-170.5,590.9-340.2,886.2-510.5
	c36.6-21.2,63.6-48.1,81.5-80.3c17.3-31.3,25.9-67.6,25.9-108.7C2218.4,1762.5,2218.4,1077.8,2218.3,735.3z M1109.2,1985.6
	c-273.4,0-512-148.9-639.1-370.1c-62.1-108-97.6-233.1-97.6-366.6c0-406.9,329.8-736.7,736.7-736.7c272.5,0,510.5,148,637.9,368
	l-320.6,184.6c-63.5-109.3-181.8-182.8-317.3-182.8c-202.6,0-366.8,164.2-366.8,366.8c-0.1,63.9,16.6,126.6,48.4,182
	c63.2,110.4,182.1,184.8,318.5,184.8c137.2,0,256.7-75.4,319.7-187v0l320.2,185.5C1622.1,1836.1,1383.1,1985.6,1109.2,1985.6z
	 M1851,1290.3h-84.4v84.4h-84.4v-84.4h-84.4V1206h84.4v-84.4h84.4v84.4h84.4V1290.3z M2158.9,1290.3h-84.4v84.4h-84.4v-84.4h-84.4
	V1206h84.4v-84.4h84.4v84.4h84.4V1290.3z"/>
</svg>
