<?xml version="1.0" encoding="utf-8"?>
<!-- Generator: Adobe Illustrator 25.4.1, SVG Export Plug-In . SVG Version: 6.00 Build 0)  -->
<svg version="1.1" id="Layer_1" xmlns="http://www.w3.org/2000/svg" xmlns:xlink="http://www.w3.org/1999/xlink" x="0px" y="0px"
	 viewBox="0 0 2201 2475.4" style="enable-background:new 0 0 2201 2475.4;" xml:space="preserve">
<style type="text/css">
	.st0{fill:#F5F3FA;}
</style>
<path class="st0" d="M2173.9,617.1c-17.6-31.2-44.1-57-79.3-77.3C1801.6,371,1508,202.2,1215.1,33.3c-79.3-45.4-155.3-44.1-233.9,2
	C864.5,103.8,280,438.8,106.5,539.8C34.6,581.2,0,644.9,0,727.7v1019.8c0,40.7,8.8,76.6,25.8,107.8c17.6,31.9,44.8,59,80.7,80
	c174.3,101,758.1,435.3,874.7,504.5c78.7,46.1,155.3,48.1,233.9,2c292.9-169.5,586.5-337.7,879.4-506.5c36.6-21,63.1-47.5,80.7-80
	c17-31.2,25.8-67.1,25.8-107.8l0-1020.5C2201,685.6,2192.2,648.3,2173.9,617.1z M1099.8,1967.8c-271.2,0-508.5-147.8-634.7-366.8
	c-61.7-107.1-97-231.9-97-364.1c0-403.4,326.8-730.9,730.9-730.9c270.5,0,506.5,147.1,633.3,365.5l-318,183.1
	c-63.1-108.5-180.4-181.7-314.6-181.7c-201.4,0-364.1,162.7-364.1,364.1c0,65.8,17.6,126.8,48.1,180.4
	c62.4,109.8,180.4,183.8,316,183.8c136.3,0,255-75.3,317.3-185.8l318,183.8C1609,1819.3,1371.7,1967.8,1099.8,1967.8z M2038.9,1283
	l0,72.6h-59v59h-72.6v-59h-88.1v59h-72.6v-59h-58.3V1283h58.3v-87.5h-58.3V1123h58.3v-59h72.6v59h88.1v-59h72.6v59h59l0,72.6h-59
	v87.5H2038.9z"/>
<rect x="1819.2" y="1195.5" class="st0" width="88.1" height="87.5"/>
</svg>
