<?xml version="1.0" encoding="UTF-8" standalone="no"?>
<!-- Generator: Adobe Illustrator 25.4.1, SVG Export Plug-In . SVG Version: 6.00 Build 0)  -->

<svg
   version="1.1"
   id="svg19"
   sodipodi:docname="dart.svg"
   x="0px"
   y="0px"
   viewBox="0 0 60 60"
   style="enable-background:new 0 0 60 60;"
   xml:space="preserve"
   inkscape:version="1.2.2 (b0a8486541, 2022-12-01)"
   xmlns:inkscape="http://www.inkscape.org/namespaces/inkscape"
   xmlns:sodipodi="http://sodipodi.sourceforge.net/DTD/sodipodi-0.dtd"
   xmlns="http://www.w3.org/2000/svg"
   xmlns:svg="http://www.w3.org/2000/svg"><defs
   id="defs11" /><sodipodi:namedview
   id="namedview9"
   pagecolor="#ffffff"
   bordercolor="#000000"
   borderopacity="0.25"
   inkscape:showpageshadow="2"
   inkscape:pageopacity="0.0"
   inkscape:pagecheckerboard="0"
   inkscape:deskcolor="#d1d1d1"
   showgrid="false"
   inkscape:zoom="10.225519"
   inkscape:cx="8.2636391"
   inkscape:cy="26.404527"
   inkscape:window-width="1920"
   inkscape:window-height="1012"
   inkscape:window-x="0"
   inkscape:window-y="32"
   inkscape:window-maximized="1"
   inkscape:current-layer="svg19" />
<style
   type="text/css"
   id="style2">
	.st0{opacity:0.75;fill:#F5F3FA;}
	.st1{fill:#F5F3FA;}
</style>

<g
   id="g273"
   transform="translate(-184.30602,52.81)">
	
	<g
   id="g271"
   transform="matrix(0.44078754,0,0,0.44078754,183.46412,-53.070065)">
		<path
   fill="#01579b"
   d="M 29.64,108.94 6.36,85.66 C 3.6,82.82 1.88,78.82 1.88,74.91 1.88,73.1 2.9,70.27 3.67,68.64 L 25.16,23.87 Z"
   id="path248"
   style="display:inline;fill:#f5f3fa;fill-opacity:1;stroke:none" />
		<path
   fill="#40c4ff"
   d="M 109.34,28.35 86.06,5.07 C 84.03,3.03 79.79,0.59 76.21,0.59 c -3.08,0 -6.1,0.62 -8.06,1.79 L 25.17,23.87 Z"
   id="path250"
   style="stroke:none;fill:#f5f3fa;fill-opacity:1;opacity:0.75" />
		<path
   id="polygon252"
   d="M 25.159393 23.87042 L 25.159393 96.401289 C 25.16472 99.757651 25.196972 101.81683 26.010143 103.82763 C 26.538659 105.32698 27.4683 106.55552 28.717477 107.90857 C 28.760724 107.95736 28.806097 108.00984 28.850407 108.05922 C 29.131473 108.35926 29.324459 108.62542 29.647985 108.94985 L 30.538614 109.84048 L 33.228225 112.53009 L 33.237087 112.53009 L 57.399273 136.70114 L 113.81906 136.70114 L 113.81906 112.53009 L 113.81906 112.52123 L 113.8102 112.5168 L 74.418704 67.759372 L 25.168255 23.879282 L 25.159393 23.87042 z "
   style="stroke:none;fill:#f5f3fa;fill-opacity:1;opacity:0.75" />
		
		<path
   id="path256"
   style="display:inline;stroke:none;fill:#f5f3fa;fill-opacity:1"
   d="M 25.159393 23.87042 L 112.91957 111.6306 L 113.8102 112.52123 L 113.81906 112.52123 L 137.99011 112.52123 L 137.99897 112.52123 L 137.99897 57.009791 L 137.99011 57.000929 L 137.09948 56.1103 L 109.33933 28.350151 C 108.81395 27.822157 108.29842 27.362026 107.78406 26.949958 C 107.51282 26.731419 107.24547 26.56248 106.97762 26.373929 C 106.75632 26.219572 106.53407 26.04463 106.31297 25.908675 C 105.9302 25.670704 105.54652 25.478034 105.16534 25.292768 C 105.05918 25.241729 104.95279 25.180735 104.84631 25.133252 C 104.38201 24.924128 103.91585 24.750521 103.44612 24.605964 C 103.4359 24.60282 103.42532 24.600219 103.4151 24.597102 C 103.41203 24.596164 103.40931 24.593607 103.40624 24.592671 C 102.95062 24.454141 102.48658 24.345082 102.01934 24.255916 C 101.9411 24.240629 101.86322 24.221306 101.7845 24.207175 C 101.36241 24.133569 100.92774 24.073461 100.49065 24.029936 C 100.38261 24.018512 100.27191 24.008804 100.16275 23.998919 C 99.42237 23.936457 98.599358 23.923233 97.796605 23.910299 C 97.455906 23.904617 97.153637 23.87042 96.799632 23.87042 L 95.909004 23.87042 L 25.168255 23.87042 L 25.159393 23.87042 z " />
		
		
		

			<radialGradient
   id="SVGID_1_"
   cx="69.955002"
   cy="60.886398"
   r="68.065002"
   gradientTransform="matrix(1,0,0,-1,0,129.5328)"
   gradientUnits="userSpaceOnUse">
			<stop
   offset="0"
   style="stop-color:#FFFFFF;stop-opacity:0.1"
   id="stop264" />
			<stop
   offset="1"
   style="stop-color:#FFFFFF;stop-opacity:0"
   id="stop266" />
		</radialGradient>
		
	</g>
</g></svg>
