<?xml version="1.0" encoding="utf-8"?>
<!-- Generator: Adobe Illustrator 25.4.1, SVG Export Plug-In . SVG Version: 6.00 Build 0)  -->
<svg version="1.1" id="Layer_1" xmlns="http://www.w3.org/2000/svg" xmlns:xlink="http://www.w3.org/1999/xlink" x="0px" y="0px"
	 viewBox="0 0 132 132" style="enable-background:new 0 0 132 132;" xml:space="preserve">
<style type="text/css">
	.st0{opacity:0.5;fill:#F5F3FA;}
	.st1{opacity:0.75;fill:#F5F3FA;}
	.st2{fill:#F5F3FA;}
</style>
<path class="st0" d="M18.4,106.2L34.5,3c0.2-1.3,1.2-2.3,2.4-2.5s2.5,0.4,3.1,1.5l16.7,31.1l6.7-12.7c0.5-1,1.5-1.6,2.6-1.6
	s2.1,0.6,2.6,1.6l45,85.7L18.4,106.2L18.4,106.2z"/>
<path class="st1" d="M74.1,66L56.7,33.1l-38.4,73.1L74.1,66z"/>
<path class="st2" d="M113.7,106.2l-12.4-76.5c-0.2-1.1-1-2-2-2.3s-2.2-0.1-3,0.7l-77.9,78.1l43.1,24.2c2.7,1.5,6,1.5,8.7,0
	L113.7,106.2L113.7,106.2z"/>
</svg>
