<?xml version="1.0" encoding="UTF-8" standalone="no"?>
<!-- Generator: Adobe Illustrator 25.4.1, SVG Export Plug-In . SVG Version: 6.00 Build 0)  -->

<svg
   version="1.1"
   id="svg19"
   sodipodi:docname="flutter.svg"
   x="0px"
   y="0px"
   viewBox="0 0 60 60"
   style="enable-background:new 0 0 60 60;"
   xml:space="preserve"
   inkscape:version="1.2.2 (b0a8486541, 2022-12-01)"
   xmlns:inkscape="http://www.inkscape.org/namespaces/inkscape"
   xmlns:sodipodi="http://sodipodi.sourceforge.net/DTD/sodipodi-0.dtd"
   xmlns="http://www.w3.org/2000/svg"
   xmlns:svg="http://www.w3.org/2000/svg"><defs
   id="defs11" /><sodipodi:namedview
   id="namedview9"
   pagecolor="#ffffff"
   bordercolor="#000000"
   borderopacity="0.25"
   inkscape:showpageshadow="2"
   inkscape:pageopacity="0.0"
   inkscape:pagecheckerboard="0"
   inkscape:deskcolor="#d1d1d1"
   showgrid="false"
   inkscape:zoom="8.1145029"
   inkscape:cx="5.6688624"
   inkscape:cy="32.657577"
   inkscape:window-width="1920"
   inkscape:window-height="1012"
   inkscape:window-x="0"
   inkscape:window-y="32"
   inkscape:window-maximized="1"
   inkscape:current-layer="g260" />
<style
   type="text/css"
   id="style2">
	.st0{opacity:0.75;fill:#F5F3FA;}
	.st1{fill:#F5F3FA;}
</style>

<g
   id="g260"
   transform="matrix(0.22769938,0,0,0.22769938,4.66389,-0.91844469)"
   style="fill:#f5f3fa;fill-opacity:1;opacity:1"><path
     id="path246"
     style="stroke:none;fill:#f5f3fa;fill-opacity:1"
     d="M 217.9502 3.9992739 L 136.28242 4.093628 L 4.5897989 135.77767 L 45.222115 176.46145 L 80.930861 140.94999 L 217.9502 3.9992739 z M 137.60338 125.46734 C 136.79838 125.49234 136.04901 125.66799 135.51901 126.36799 L 106.07195 155.80648 L 65.362431 196.4731 L 106.08052 237.19977 L 134.46396 265.60894 C 135.43396 266.46894 136.36644 267.86176 137.88644 267.52176 C 164.55638 267.46176 191.22737 267.53887 217.90731 267.47887 L 147.08168 196.57604 L 146.91012 196.39591 L 217.88158 125.50165 L 140.0137 125.47592 C 139.2737 125.56592 138.40838 125.44234 137.60338 125.46734 z " /></g></svg>
