<svg id="Layer_1" data-name="Layer 1" xmlns="http://www.w3.org/2000/svg" viewBox="0 0 2499.99 2499.95"><defs><style>.cls-1{fill:#f5f3fa;}</style></defs><path class="cls-1" d="M2452.85,1138.61,1361.33,47.15c-62.82-62.86-164.78-62.86-227.68,0L907,273.81l287.53,287.53c66.82-22.58,143.44-7.43,196.7,45.83a191.4,191.4,0,0,1,45.43,197.91l277.1,277.11c67-23.1,144.39-8.16,197.94,45.48,74.83,74.8,74.83,196,0,270.89A191.6,191.6,0,0,1,1599,1190.21L1340.59,931.79l0,680.05a193.34,193.34,0,0,1,50.66,36.23c74.83,74.8,74.83,196,0,271s-196.15,74.83-270.9,0-74.83-196.15,0-271a191.83,191.83,0,0,1,62.71-41.81V919.88a189.33,189.33,0,0,1-62.71-41.8c-56.7-56.62-70.33-139.82-41.28-209.44L795.61,385.18,47.17,1133.56a161.06,161.06,0,0,0,0,227.76L1138.71,2452.8c62.84,62.87,164.78,62.87,227.7,0L2452.84,1366.39c62.87-62.89,62.87-164.92,0-227.78" transform="translate(0 0)"/></svg>