<?xml version="1.0" encoding="utf-8"?>
<!-- Generator: Adobe Illustrator 25.4.1, SVG Export Plug-In . SVG Version: 6.00 Build 0)  -->
<svg version="1.1" id="Calque_1" xmlns="http://www.w3.org/2000/svg" xmlns:xlink="http://www.w3.org/1999/xlink" x="0px" y="0px"
	 viewBox="0 0 630 630" style="enable-background:new 0 0 630 630;" xml:space="preserve">
<style type="text/css">
	.st0{fill:#F5F3FA;}
</style>
<path class="st0" d="M0,0v630h630V0H0z M343.1,491.4c0,61.3-35.9,89.2-88.4,89.2c-47.4,0-74.9-24.5-88.8-54.1l48.2-29.2
	c9.3,16.5,17.8,30.5,38.1,30.5c19.5,0,31.7-7.6,31.7-37.2V289.3h59.2V491.4z M483,580.7c-55,0-90.5-26.2-107.9-60.5l48.1-28
	c12.7,20.7,29.2,36,58.4,36c24.5,0,40.2-12.3,40.2-29.2c0-20.3-16.1-27.5-43.1-39.3l-14.8-6.4c-42.7-18.2-71.1-41-71.1-89.2
	c0-44.4,33.8-78.2,86.7-78.2c37.6,0,64.7,13.1,84.2,47.4l-46.1,29.6c-10.1-18.2-21.1-25.4-38.1-25.4c-17.3,0-28.3,11-28.3,25.4
	c0,17.8,11,25,36.4,36l14.8,6.3c50.3,21.6,78.7,43.6,78.7,93C581.1,551.5,539.2,580.7,483,580.7z"/>
</svg>
