<?xml version="1.0" encoding="UTF-8" standalone="no"?>
<!-- Generator: Adobe Illustrator 25.4.1, SVG Export Plug-In . SVG Version: 6.00 Build 0)  -->

<svg
   version="1.1"
   id="Calque_1"
   x="0px"
   y="0px"
   viewBox="0 0 630 630"
   style="enable-background:new 0 0 630 630;"
   xml:space="preserve"
   sodipodi:docname="nestjs.svg"
   inkscape:version="1.2.2 (b0a8486541, 2022-12-01)"
   xmlns:inkscape="http://www.inkscape.org/namespaces/inkscape"
   xmlns:sodipodi="http://sodipodi.sourceforge.net/DTD/sodipodi-0.dtd"
   xmlns="http://www.w3.org/2000/svg"
   xmlns:svg="http://www.w3.org/2000/svg"><defs
   id="defs9" /><sodipodi:namedview
   id="namedview7"
   pagecolor="#ffffff"
   bordercolor="#000000"
   borderopacity="0.25"
   inkscape:showpageshadow="2"
   inkscape:pageopacity="0.0"
   inkscape:pagecheckerboard="0"
   inkscape:deskcolor="#d1d1d1"
   showgrid="false"
   inkscape:zoom="0.38797726"
   inkscape:cx="-51.549413"
   inkscape:cy="231.97236"
   inkscape:window-width="1654"
   inkscape:window-height="750"
   inkscape:window-x="50"
   inkscape:window-y="118"
   inkscape:window-maximized="0"
   inkscape:current-layer="Calque_1" />
<style
   type="text/css"
   id="style2">
	.st0{fill:#F5F3FA;}
</style>

<path
   d="m 370.61641,1.659527 c -4.56139,0 -8.79701,0.9774799 -12.70685,2.2807221 8.30828,5.5388841 12.86974,12.8698269 15.1505,21.1781499 0.16342,1.140348 0.48873,1.954927 0.65188,3.095234 0.16336,0.97748 0.32558,1.954927 0.32558,2.932407 0.65195,14.335937 -3.74695,16.127929 -6.84216,24.599186 -4.72441,10.914934 -3.42117,22.644347 2.2807,32.093084 0.48873,1.140308 1.14035,2.443583 1.95499,3.583958 C 365.24038,50.206335 399.61423,44.0158 405.96759,31.14604 406.45632,19.90531 397.17058,12.411506 389.8397,7.1984178 382.83466,2.9628024 376.4811,1.659527 370.61641,1.659527 Z m 51.80497,9.285803 c -0.65188,3.746898 -0.16308,2.769445 -0.3255,4.724372 -0.16309,1.303235 -0.16309,2.932366 -0.32558,4.235608 -0.32557,1.303276 -0.65195,2.606518 -1.14041,3.909847 -0.32558,1.303242 -0.81451,2.606518 -1.30324,3.909753 -0.65195,1.303342 -1.14035,2.44365 -1.79203,3.746925 -0.48866,0.651905 -0.81451,1.303236 -1.30324,1.95492 -0.32557,0.488724 -0.65188,0.977447 -0.97739,1.46617 -0.81457,1.140408 -1.62914,2.280722 -2.44365,3.258162 -0.97753,0.977487 -1.79203,2.117795 -2.93245,2.932407 v 0.163114 c -0.97746,0.814546 -1.95492,1.791992 -3.0952,2.606511 -3.42111,2.606511 -7.33088,4.561438 -10.91494,7.005081 -1.14029,0.814519 -2.2807,1.46621 -3.25816,2.44365 -1.14028,0.814519 -2.11781,1.629038 -3.0952,2.606511 -1.14042,0.977446 -1.95492,1.954926 -2.93245,3.095301 -0.8145,0.97748 -1.79196,2.117794 -2.44358,3.258202 -0.81457,1.140308 -1.62908,2.280689 -2.28076,3.42103 -0.65189,1.303235 -1.14035,2.443643 -1.79197,3.746885 -0.48873,1.303242 -0.97752,2.44365 -1.3033,3.746885 -0.48873,1.466204 -0.81451,2.769479 -1.14035,4.072781 -0.16309,0.651898 -0.16309,1.466137 -0.32557,2.117795 -0.16336,0.651898 -0.16336,1.303235 -0.32551,1.95492 0,1.303242 -0.16316,2.769445 -0.16316,4.072687 0,0.977473 0,1.95492 0.16316,2.932393 0,1.303249 0.16309,2.606491 0.48866,4.072688 0.16316,1.303235 0.48873,2.606511 0.81464,3.909846 0.48873,1.303242 0.81451,2.606511 1.30324,3.909756 0.32557,0.81462 0.8145,1.62913 1.14041,2.28072 L 343.2488,88.001378 c -6.35349,-1.791999 -12.54396,-3.42103 -18.89745,-4.887233 -3.42104,-0.814519 -6.84209,-1.629098 -10.2632,-2.44365 -9.7746,-1.954893 -19.71195,-3.42103 -29.64944,-4.398476 -0.32551,0 -0.48866,-0.163135 -0.8145,-0.163135 -9.7746,-0.977446 -19.38612,-1.46617 -29.16065,-1.46617 -7.16806,0 -14.33606,0.325549 -21.34116,0.814519 -9.93742,0.651905 -19.87491,1.954927 -29.81227,3.583958 -2.44364,0.325582 -4.88729,0.814612 -7.33094,1.303342 -5.05013,0.97738 -9.93736,2.117787 -14.6617,3.258162 -2.44365,0.651898 -4.8873,1.303269 -7.33095,1.95486 -2.44359,0.977446 -4.72435,2.117854 -7.00511,3.095301 -1.79197,0.814519 -3.584,1.629064 -5.37596,2.443643 -0.32558,0.163141 -0.65189,0.163141 -0.81451,0.325582 -1.62914,0.814512 -3.09533,1.466103 -4.56146,2.280715 -0.48873,0.163135 -0.81457,0.325542 -1.14034,0.488724 -1.79204,0.814519 -3.584,1.791965 -5.05019,2.606511 -1.14042,0.488723 -2.2807,1.140374 -3.25816,1.629131 -0.48873,0.325548 -1.14041,0.651871 -1.46619,0.814519 -1.46619,0.814519 -2.93238,1.629029 -4.23561,2.443649 -1.46619,0.81451 -2.76949,1.62903 -3.90984,2.44355 -1.14035,0.81461 -2.28076,1.4662 -3.25822,2.28072 -0.16323,0.16314 -0.32558,0.16314 -0.48873,0.32558 -0.97746,0.6519 -2.11774,1.46617 -3.0952,2.28078 0,0 -0.16323,0.16311 -0.32558,0.32557 -0.81451,0.6519 -1.62914,1.30325 -2.44365,1.95484 -0.32558,0.16313 -0.65188,0.48872 -0.97746,0.6519 -0.81451,0.6519 -1.62908,1.4662 -2.44358,2.11784 -0.16316,0.32558 -0.48873,0.48873 -0.65189,0.65191 -0.97746,0.97745 -1.95492,1.79196 -2.93238,2.76944 -0.16322,0 -0.16322,0.16314 -0.32557,0.32555 -0.97746,0.81455 -1.95492,1.79199 -2.93238,2.76947 -0.16316,0.16314 -0.16316,0.32555 -0.32558,0.32555 -0.8145,0.81452 -1.62901,1.62913 -2.44365,2.60651 -0.32551,0.32557 -0.8145,0.6519 -1.14028,0.97744 -0.8145,0.97748 -1.79196,1.95492 -2.76942,2.9324 -0.16323,0.32555 -0.48873,0.48873 -0.65196,0.81452 -1.30323,1.30334 -2.44365,2.60658 -3.74688,3.90985 -0.16316,0.16314 -0.32558,0.32554 -0.48873,0.48872 -2.60661,2.76944 -5.37603,5.53889 -8.308344,7.98252 -2.93238,2.6065 -6.027581,5.05015 -9.122915,7.16795 -3.258155,2.28079 -6.353423,4.23563 -9.774533,6.19055 -3.258155,1.79193 -6.679265,3.42108 -10.263263,4.88729 -3.421109,1.46617 -7.00504,2.76947 -10.589038,3.90976 -6.84222,1.46617 -13.84726,4.23563 -19.874908,4.72436 -1.303235,0 -2.769425,0.3256 -4.072661,0.48871 -1.46619,0.32556 -2.769425,0.65191 -4.072727,0.97751 -1.303236,0.48868 -2.606538,0.97743 -3.90984,1.46614 -1.303235,0.48873 -2.606471,1.14039 -3.909773,1.79203 -1.140348,0.8145 -2.44365,1.46616 -3.583998,2.28069 -1.140347,0.81452 -2.280762,1.79196 -3.258222,2.76944 -1.140281,0.81459 -2.280695,1.95494 -3.258155,2.93235 -0.97746,1.14044 -1.9549201,2.11788 -2.7694256,3.25817 -0.8145055,1.30325 -1.7919654,2.44367 -2.4436498,3.74695 -0.8145055,1.14039 -1.6290777,2.44362 -2.2806955,3.74682 -0.6519512,1.46627 -1.3033021,2.7695 -1.7920321,4.23571 -0.48873,1.30325 -0.97746,2.76942 -1.46618994,4.23563 -0.32557541,1.30323 -0.65188454,2.60651 -0.81450549,3.90971 C 0.16315457,203.50313 0,203.66538 0,203.82851 c -0.32557541,1.46627 -0.32557541,3.42121 -0.48872998,4.39869 -0.16315456,1.14033 -0.3255754,2.11773 -0.3255754,3.25815 0,0.65189 0,1.46611 0.16315456,2.11775 0.16315457,1.14042 0.32557541,2.11786 0.65188454864,3.09539 C 0.32630914,217.6758 0.65268498,218.65328 1.1410814,219.63077 v 0.16311 c 0.48873,0.97753 1.1404145,1.95494 1.7919655,2.9324 0.6518845,0.97746 1.3033689,1.95492 2.1178743,2.9324 0.8145055,0.81453 1.7919655,1.79191 2.7694254,2.60648 0.97746,0.97746 1.9549199,1.79199 3.0952674,2.60651 3.90984,3.42113 4.8873,4.56153 9.937421,7.16801 0.814572,0.48875 1.629144,0.81457 2.606604,1.3033 0.163221,0 0.325576,0.16311 0.48873,0.16311 0,0.32554 0,0.48876 0.163155,0.81463 0.163221,1.30328 0.48873,2.60648 0.814572,3.90978 0.325575,1.46619 0.814572,2.76949 1.303302,3.90981 0.48873,0.97748 0.814506,1.95489 1.303236,2.9324 0.163221,0.32559 0.325575,0.6519 0.48873,0.81453 0.651951,1.30323 1.303302,2.4437 1.954853,3.58396 0.814639,1.14035 1.629144,2.28069 2.44365,3.42113 0.814572,0.97741 1.792032,2.11778 2.769492,3.09522 0.97746,0.97748 1.95492,1.79203 3.095267,2.76941 0,0 0.163222,0.16337 0.325576,0.16337 0.97746,0.8146 1.95492,1.62914 2.93238,2.28068 1.140347,0.81458 2.280695,1.46616 3.583997,2.11786 1.140348,0.65189 2.44365,1.30325 3.746886,1.792 0.977459,0.48873 2.11774,0.81458 3.258155,1.14038 0.163221,0.16336 0.325575,0.16336 0.651884,0.32561 0.651952,0.16336 1.466124,0.32552 2.117808,0.48868 -0.48873,8.79706 -0.651884,17.10538 0.651885,20.03781 1.466123,3.25814 8.634118,-6.67928 15.802113,-18.08287 -0.977393,11.24071 -1.629077,24.43622 0,28.34614 1.792032,4.07261 11.566499,-8.63425 20.037796,-22.6444 115.502224,-26.71693 220.904344,53.1083 231.982114,165.84111 -2.11787,-17.59416 -23.78468,-27.36864 -33.7221,-24.92497 -4.8873,12.0552 -13.19564,27.5315 -26.55411,37.14313 1.14035,-10.752 0.65182,-21.82974 -1.62907,-32.58176 -3.58407,14.98763 -10.58911,28.99785 -20.20082,41.05305 -15.47627,1.14032 -30.95268,-6.35351 -39.09813,-17.59413 -0.65189,-0.48879 -0.81451,-1.46622 -1.30324,-2.11783 -0.48873,-1.14048 -0.97746,-2.28072 -1.30323,-3.42113 -0.48873,-1.14032 -0.81457,-2.28072 -0.97746,-3.42104 -0.16322,-1.14041 -0.16322,-2.28076 -0.16322,-3.58399 0,-0.8146 0,-1.6291 0,-2.4436 0.16322,-1.14046 0.48873,-2.2808 0.8145,-3.42117 0.32558,-1.14032 0.65189,-2.28072 1.14042,-3.42109 0.65188,-1.14029 1.14034,-2.28068 1.95492,-3.421 2.76942,-7.81973 2.76942,-14.1731 -2.2807,-17.91998 -0.97746,-0.65189 -1.95492,-1.14042 -3.09533,-1.62915 -0.65189,-0.16311 -1.46619,-0.48873 -2.11774,-0.65187 -0.48873,-0.1631 -0.81458,-0.32561 -1.30331,-0.48875 -1.14034,-0.32556 -2.28076,-0.65191 -3.42111,-0.81452 -1.14034,-0.32554 -2.28069,-0.48873 -3.42111,-0.48873 -1.14028,-0.16337 -2.44365,-0.32557 -3.58393,-0.32557 -0.81457,0 -1.62914,0.16311 -2.44365,0.16311 -1.30323,0 -2.44365,0.16337 -3.584,0.48873 -1.14041,0.16337 -2.28069,0.32554 -3.4211,0.65184 -1.14029,0.32559 -2.2807,0.65192 -3.42111,1.14047 -1.14029,0.4887 -2.11775,0.97743 -3.25816,1.46616 -0.97739,0.48876 -1.95485,1.14032 -3.09527,1.62905 -37.95771,24.76212 -15.31338,82.75763 10.58911,99.53723 -9.77454,1.79197 -19.71196,3.90991 -22.48138,6.02765 -0.16316,0.16309 -0.32558,0.32557 -0.32558,0.32557 7.00511,4.23555 14.33599,7.81962 21.99265,10.91482 10.42615,3.42111 21.50392,6.51638 26.39122,7.81968 v 0.16309 c 13.52142,2.76949 27.20579,3.74695 41.05305,2.93244 72.16862,-5.05019 131.30448,-59.9505 142.05647,-132.28195 0.32558,1.46621 0.65188,2.76942 0.97746,4.23565 0.4888,2.93228 1.14035,6.02756 1.46612,9.12282 v 0.16337 c 0.32558,1.46619 0.48873,2.93235 0.65189,4.2356 v 0.65192 c 0.16335,1.46617 0.32557,2.93238 0.32557,4.2356 0.16316,1.79202 0.32558,3.58397 0.32558,5.37605 v 2.60651 c 0,0.8146 0.16315,1.79196 0.16315,2.60656 0,0.97748 -0.16315,1.95487 -0.16315,2.93232 v 2.28072 c 0,1.14042 -0.16336,2.11783 -0.16336,3.25819 0,0.65185 0,1.30329 -0.16308,2.11783 0,1.14042 -0.16316,2.28069 -0.16316,3.58396 -0.16335,0.48873 -0.16335,0.97746 -0.16335,1.46622 -0.16309,1.30328 -0.32558,2.44364 -0.48873,3.74693 0,0.48875 0,0.97743 -0.16309,1.46621 -0.16342,1.62902 -0.48873,3.09526 -0.65182,4.72428 v 0.16336 0.16312 c -0.32557,1.46616 -0.65195,3.09523 -0.97753,4.5614 v 0.48875 c -0.32557,1.46614 -0.65195,2.93238 -0.97746,4.39849 0,0.16336 -0.16308,0.48876 -0.16308,0.65184 -0.32565,1.46624 -0.65195,2.93241 -1.14035,4.39867 v 0.48868 c -0.48873,1.62902 -0.97746,3.09523 -1.3033,4.56142 -0.16309,0.16311 -0.16309,0.32557 -0.16309,0.32557 -0.4888,1.62912 -0.97746,3.25817 -1.46612,4.88725 -0.65189,1.62911 -1.14042,3.09528 -1.79197,4.72438 -0.65188,1.6291 -1.14048,3.2582 -1.79203,4.72433 -0.65195,1.62915 -1.30337,3.09534 -1.95492,4.72436 h -0.16336 c -0.65195,1.46615 -1.30337,3.0953 -2.11794,4.56155 -0.16309,0.4886 -0.32551,0.81451 -0.48866,1.14022 -0.16316,0.16342 -0.16316,0.32557 -0.32558,0.48879 -10.58903,21.34097 -26.22833,40.07553 -45.77733,54.73736 -1.30323,0.81451 -2.60653,1.79197 -3.90977,2.76936 -0.32564,0.32564 -0.81464,0.4888 -1.14041,0.81457 -1.14042,0.81451 -2.28077,1.62901 -3.58393,2.44365 l 0.48866,0.97746 h 0.16315 c 2.2807,-0.32551 4.56139,-0.65188 6.84216,-0.97746 h 0.16308 c 4.23569,-0.65188 8.4713,-1.46619 12.70698,-2.28069 1.14028,-0.16336 2.44365,-0.48873 3.58393,-0.81464 0.81451,-0.16336 1.46619,-0.32551 2.2807,-0.48873 1.14041,-0.16336 2.28076,-0.48873 3.42118,-0.65182 0.97739,-0.32558 1.95485,-0.4888 2.93231,-0.81457 16.29084,-3.90984 32.09309,-9.28587 47.24345,-15.6393 -25.90242,35.35118 -60.60198,63.86028 -101.1663,82.59477 18.73456,-1.3033 37.46905,-4.3985 55.55193,-9.61158 65.65224,-19.38624 120.87826,-63.5345 153.94874,-122.99616 -6.67927,37.63197 -21.66687,73.47188 -43.82241,104.7504 15.80211,-10.42629 30.30099,-22.48151 43.49663,-36.16582 36.49153,-38.1206 60.43917,-86.50447 68.58455,-138.47247 5.53892,25.7396 7.168,52.29383 4.72435,78.5221 117.6201,-164.04915 9.77453,-334.12588 -35.35118,-378.92578 -0.16335,-0.32556 -0.32557,-0.48873 -0.32557,-0.81453 -0.16336,0.16312 -0.16336,0.16312 -0.16336,0.32559 0,-0.16314 0,-0.16314 -0.16309,-0.32559 0,1.95493 -0.16308,3.90976 -0.32557,5.86468 -0.48873,3.74691 -0.97746,7.33089 -1.62915,10.91494 -0.8145,3.58396 -1.79196,7.16787 -2.76942,10.75194 -1.14035,3.42103 -2.44352,7.00502 -3.90978,10.42615 -1.46619,3.25813 -3.09526,6.67923 -4.8873,9.93745 -1.79196,3.09529 -3.74688,6.35344 -5.86462,9.28576 -2.11788,3.09534 -4.39857,6.02764 -6.67933,8.79703 -2.44372,2.93243 -5.05012,5.53899 -7.65673,8.14552 -1.62908,1.46619 -3.0952,2.76944 -4.72441,4.07264 -1.30324,1.14042 -2.44358,2.1179 -3.74689,3.25817 -2.93231,2.28074 -5.86469,4.39857 -9.12284,6.35351 -3.09527,1.95487 -6.35336,3.90979 -9.61158,5.53891 -3.42105,1.62907 -6.84216,3.09524 -10.26327,4.56145 -3.42111,1.3032 -7.00504,2.44359 -10.5891,3.42108 -3.584,0.97741 -7.33082,1.79199 -10.91488,2.4436 -3.74682,0.65189 -7.49377,0.97743 -11.07777,1.3033 -2.60654,0.16311 -5.21307,0.32559 -7.81961,0.32559 -3.74695,0 -7.49377,-0.32559 -11.07777,-0.65189 -3.74689,-0.32557 -7.49384,-0.81465 -11.07784,-1.62917 -3.74688,-0.6519 -7.33088,-1.62912 -10.91488,-2.76939 h -0.16315 c 3.584,-0.32557 7.16799,-0.65194 10.75206,-1.30331 3.74682,-0.65189 7.33082,-1.46614 10.91488,-2.44367 3.58393,-0.97743 7.16793,-2.11783 10.58904,-3.42106 3.58393,-1.30327 7.00511,-2.9323 10.26326,-4.56147 3.42104,-1.62912 6.51638,-3.42105 9.77453,-5.37597 3.0952,-2.1178 6.19047,-4.23558 9.12285,-6.51637 2.93238,-2.28069 5.70174,-4.72428 8.30841,-7.33084 2.76943,-2.4437 5.21301,-5.21311 7.65666,-7.98258 2.44358,-2.93228 4.72435,-5.86465 6.84215,-8.79703 0.32564,-0.48875 0.65195,-1.14032 0.97753,-1.62907 1.62901,-2.60656 3.25809,-5.21309 4.72421,-7.81968 1.79203,-3.25817 3.42118,-6.51636 4.8873,-9.93737 1.46626,-3.4211 2.76949,-6.84223 3.90991,-10.42618 1.14028,-3.42113 1.95485,-7.00507 2.76942,-10.58903 0.65189,-3.74692 1.30324,-7.33096 1.62908,-10.91493 0.32558,-3.74688 0.65189,-7.4938 0.65189,-11.07776 0,-2.60658 -0.16343,-5.21309 -0.32558,-7.8196 -0.32558,-3.74689 -0.81457,-7.33094 -1.30324,-10.914905 -0.65195,-3.746919 -1.46619,-7.330877 -2.44371,-10.914934 -1.14028,-3.42103 -2.2807,-7.005054 -3.58393,-10.426084 -1.30337,-3.421123 -2.93232,-6.842213 -4.56153,-10.100415 -1.79196,-3.258169 -3.58393,-6.516331 -5.53878,-9.611572 -2.11781,-3.095234 -4.23568,-6.027601 -6.51645,-8.960001 -2.44358,-2.769445 -4.88716,-5.538884 -7.49383,-8.308329 -1.30317,-1.303242 -2.76943,-2.769446 -4.23555,-4.072681 -7.33088,-5.701845 -14.98761,-11.077868 -22.64427,-15.965095 -1.14035,-0.651878 -2.11781,-1.140374 -3.25822,-1.629124 -5.37603,-3.421037 -10.42615,-5.213095 -15.47627,-6.842133 z"
   fill="#e0234e"
   fill-rule="evenodd"
   id="path292"
   style="stroke-width:2.52104;fill:#f5f3fa;fill-opacity:1" /></svg>
