<svg id="Layer_1" data-name="Layer 1" xmlns="http://www.w3.org/2000/svg" viewBox="0 0 1235.45 363.64"><defs><style>.cls-1{fill:#f5f3fa;}</style></defs><g id="vlpa"><path class="cls-1" d="M186.22,173.54a101.73,101.73,0,0,1,18.8-34,93.37,93.37,0,0,1,31.2-23.6c12.5-5.9,27-8.8,43.5-8.8s31,2.9,43.5,8.8a90.17,90.17,0,0,1,31.2,23.6,99.08,99.08,0,0,1,18.8,34,129.5,129.5,0,0,1,0,79.8,101.73,101.73,0,0,1-18.8,34,90.31,90.31,0,0,1-31.2,23.4q-18.75,8.7-43.5,8.7t-43.5-8.7a89.68,89.68,0,0,1-31.2-23.4,100,100,0,0,1-18.8-34,129.5,129.5,0,0,1,0-79.8Zm25.5,70.3a79.8,79.8,0,0,0,12.9,26.9,63.7,63.7,0,0,0,22.5,19.2q13.8,7.2,32.7,7.2t32.7-7.2a63.7,63.7,0,0,0,22.5-19.2,83.76,83.76,0,0,0,12.9-26.9,114,114,0,0,0,0-60.6,79.8,79.8,0,0,0-12.9-26.9,64.58,64.58,0,0,0-22.5-19.2c-9.2-4.8-20.1-7.3-32.7-7.3s-23.6,2.4-32.7,7.3a63.7,63.7,0,0,0-22.5,19.2,83.76,83.76,0,0,0-12.9,26.9,115.26,115.26,0,0,0-4.1,30.3A111.23,111.23,0,0,0,211.72,243.84Z" transform="translate(0 0)"/><path class="cls-1" d="M399,186.74h21V204h.5a31.62,31.62,0,0,1,16.3-15.5,61.2,61.2,0,0,1,24.5-4.8c9.9,0,18.5,1.8,25.9,5.4a52.69,52.69,0,0,1,18.3,14.7,64.8,64.8,0,0,1,11,21.4,86.81,86.81,0,0,1,3.7,25.7,89.18,89.18,0,0,1-3.6,25.7,60.93,60.93,0,0,1-10.9,21.2,54.25,54.25,0,0,1-18.3,14.4c-7.3,3.5-15.9,5.3-25.6,5.3a57.37,57.37,0,0,1-10.6-1,61.23,61.23,0,0,1-11.4-3.3A48.67,48.67,0,0,1,429,307a33.74,33.74,0,0,1-8.5-9.5H420v66.1H399Zm99.1,62.9a63.55,63.55,0,0,0-2.4-17.4,47.44,47.44,0,0,0-7.2-15.2,33.61,33.61,0,0,0-12.4-10.6,37.89,37.89,0,0,0-17.7-4c-7.1,0-13.1,1.4-18.1,4.2a35.62,35.62,0,0,0-12.1,11,46.3,46.3,0,0,0-6.8,15.5,74.34,74.34,0,0,0-2.1,17.6,73.16,73.16,0,0,0,2.2,18.2,44,44,0,0,0,7.1,15.5,36.44,36.44,0,0,0,12.5,10.8c5.1,2.7,11.3,4.1,18.6,4.1,7.1,0,13.1-1.4,18.1-4.2a33.43,33.43,0,0,0,11.9-11.1,47.3,47.3,0,0,0,6.4-15.8A89.75,89.75,0,0,0,498.12,249.64Z" transform="translate(0 0)"/><path class="cls-1" d="M651.82,274.14q-4.2,21.3-18.6,32.4c-9.6,7.4-21.7,11.1-36.2,11.1-10.3,0-19.1-1.7-26.7-5.1a53.45,53.45,0,0,1-19-14,57.58,57.58,0,0,1-11.5-21.3,99.75,99.75,0,0,1-4.3-27,76.57,76.57,0,0,1,4.5-26.6,64,64,0,0,1,12.5-21.2,57.34,57.34,0,0,1,19.1-13.9,58.07,58.07,0,0,1,24.1-5c11.4,0,20.8,2.4,28.3,7.1a57.31,57.31,0,0,1,18.1,17.9,71.4,71.4,0,0,1,9.4,23.8,105.45,105.45,0,0,1,2.1,24.5h-95.8a49.87,49.87,0,0,0,2,16,37,37,0,0,0,7.2,13.4,35.12,35.12,0,0,0,12.6,9.3,43.61,43.61,0,0,0,18.1,3.5c8.7,0,16-2.1,21.8-6.2s9.6-10.4,11.4-18.8h20.9Zm-20.5-35.6a41.56,41.56,0,0,0-3.3-14.1,35.73,35.73,0,0,0-7.7-11.5,36.85,36.85,0,0,0-11.5-7.7,36.26,36.26,0,0,0-14.4-2.8,38.13,38.13,0,0,0-14.7,2.8,34.61,34.61,0,0,0-11.3,7.8,37.23,37.23,0,0,0-7.4,11.5,43.37,43.37,0,0,0-3.2,14Z" transform="translate(0 0)"/><path class="cls-1" d="M673.82,186.74h19.8V207h.5c4.5-7.9,10.2-13.8,17.2-17.6s15.1-5.7,24.4-5.7c8.4,0,15.4,1.2,21,3.5a34.12,34.12,0,0,1,13.6,9.7,35.1,35.1,0,0,1,7.3,14.7,79.25,79.25,0,0,1,2.1,18.9v84.2h-21v-86.6c0-7.9-2.3-14.2-6.9-18.8s-11-6.9-19.1-6.9a42.58,42.58,0,0,0-16.7,3,32.58,32.58,0,0,0-11.8,8.4,37.59,37.59,0,0,0-7.1,12.7,51.13,51.13,0,0,0-2.4,16v72.3h-21V186.74Z" transform="translate(0 0)"/><path class="cls-1" d="M995.22,111.74h109.5a66.14,66.14,0,0,1,24.6,4.4,56.33,56.33,0,0,1,18.8,12.1,51.51,51.51,0,0,1,11.9,17.9,58,58,0,0,1,4.1,21.6c0,11.9-2.5,22.3-7.5,31s-13.2,15.4-24.6,19.9v.6a34.2,34.2,0,0,1,13.7,7,38.67,38.67,0,0,1,8.8,11.2,56.27,56.27,0,0,1,5,14.1,111.13,111.13,0,0,1,2.1,15.2q.3,4.8.6,11.4c.2,4.4.5,8.8,1,13.2a86.7,86.7,0,0,0,2.3,12.9,28.21,28.21,0,0,0,4.7,10.5h-44.6a53.77,53.77,0,0,1-3-10.7c-.7-3.9-1.2-8-1.7-12.2s-.9-8.6-1.1-13.1-.7-8.7-1.3-12.7c-1.5-10.6-4.7-18.4-9.7-23.3s-13-7.4-24.2-7.4H1040v79.3h-44.6V111.74Zm44.7,91.9h48.9c10,0,17.7-2.3,22.9-6.8s7.8-11.9,7.8-22.2c0-9.9-2.6-17-7.8-21.5s-12.8-6.7-22.9-6.7h-48.9Z" transform="translate(0 0)"/><path class="cls-1" d="M130.92,179.74c26.3-93.1,212.4-137.5,415.7-99.2,122,23,216,74.3,286.9,122.6-53.1-77.4-187.3-169.1-373.3-194.4C238-21.56,23.12,29,1.72,127.24c-15.4,71,74.4,147.9,209.2,196.2-61.8-44-93.6-95.6-80-143.7Z" transform="translate(0 0)"/><polygon class="cls-1" points="860.22 218.64 793.12 314.74 843.51 314.74 888.72 247.84 933.22 314.74 986.22 314.74 919.22 218.64 860.22 218.64"/><path class="cls-1" d="M878.22,203.54h40.7l61.7-91.8h-48.9l-40.6,63.9c-64.9-92.2-160.3-129.2-245.8-141.5,99.2,41.2,176.1,104,215,169.4Z" transform="translate(0 0)"/><polygon class="cls-1" points="1183.45 289.94 1204.45 289.94 1204.45 295.54 1197.45 295.54 1197.45 314.84 1190.45 314.84 1190.45 295.54 1183.45 295.54 1183.45 289.94"/><polygon class="cls-1" points="1235.45 314.84 1229.45 314.84 1229.45 295.94 1224.45 314.84 1219.45 314.84 1213.45 295.94 1213.45 295.94 1213.45 314.84 1207.45 314.84 1207.45 289.94 1217.45 289.94 1221.45 306.54 1221.45 306.54 1225.45 289.94 1235.45 289.94 1235.45 314.84"/></g></svg>