<?xml version="1.0" encoding="utf-8"?>
<!-- Generator: Adobe Illustrator 25.4.1, SVG Export Plug-In . SVG Version: 6.00 Build 0)  -->
<svg version="1.1" id="Layer_1" xmlns="http://www.w3.org/2000/svg" xmlns:xlink="http://www.w3.org/1999/xlink" x="0px" y="0px"
	 viewBox="0 0 980 979.8" style="enable-background:new 0 0 980 979.8;" xml:space="preserve">
<style type="text/css">
	.st0{fill:#F5F3FA;}
</style>
<path class="st0" d="M332.4,279.4c-24.8,0-41.6,2.4-50.4,4.9v159.4c10.4,2.4,23.2,3.1,40.8,3.1c64.9,0,105-32.8,105-88.1
	C427.7,309.1,393.3,279.4,332.4,279.4z"/>
<path class="st0" d="M920,0H60C26.8,0,0,26.8,0,59.9v859.9c0,33.1,26.9,60,60,60h860c33.1,0,60-26.9,60-60V59.9
	C980,26.8,953.1,0,920,0z M498.9,483.7c-41.6,39.3-103.3,56.9-175.3,56.9c-16.1,0-30.5-0.8-41.7-2.4v193.1h-121V198.5
	c37.6-6.3,90.5-11.2,165-11.2c75.2,0,129,14.4,164.9,43.3c34.6,27.3,57.8,72.1,57.8,125S531,453.2,498.9,483.7z M681.3,739.2
	c-51.4,0-97-11.1-126.7-27.2l21.6-87.3c22.4,13.5,68.9,29.6,105.1,29.6c36.7,0,52-12.8,52-32.9c0-20-12-29.6-57.6-44.8
	c-80.9-27.2-112.2-71.3-111.4-117.8c0-72.8,62.5-128.2,159.4-128.2c45.7,0,86.5,10.5,110.5,22.4l-21.6,84.1
	c-17.6-9.6-51.2-22.4-84.9-22.4c-29.6,0-46.3,12-46.3,32c0,18.4,15.1,28,63.2,44.9c74.5,25.6,105.8,63.3,106.5,120.8
	C851.1,685.5,793.3,739.2,681.3,739.2z"/>
</svg>
