<?xml version="1.0" encoding="UTF-8" standalone="no"?>
<!-- Generator: Adobe Illustrator 25.4.1, SVG Export Plug-In . SVG Version: 6.00 Build 0)  -->

<svg
   version="1.1"
   id="Calque_1"
   x="0px"
   y="0px"
   viewBox="0 0 630 630"
   style="enable-background:new 0 0 630 630;"
   xml:space="preserve"
   sodipodi:docname="postgres.svg"
   inkscape:version="1.2.2 (b0a8486541, 2022-12-01)"
   xmlns:inkscape="http://www.inkscape.org/namespaces/inkscape"
   xmlns:sodipodi="http://sodipodi.sourceforge.net/DTD/sodipodi-0.dtd"
   xmlns="http://www.w3.org/2000/svg"
   xmlns:svg="http://www.w3.org/2000/svg"><defs
   id="defs9" /><sodipodi:namedview
   id="namedview7"
   pagecolor="#ffffff"
   bordercolor="#000000"
   borderopacity="0.25"
   inkscape:showpageshadow="2"
   inkscape:pageopacity="0.0"
   inkscape:pagecheckerboard="0"
   inkscape:deskcolor="#d1d1d1"
   showgrid="false"
   inkscape:zoom="0.97349477"
   inkscape:cx="323.06286"
   inkscape:cy="331.79429"
   inkscape:window-width="1920"
   inkscape:window-height="1012"
   inkscape:window-x="0"
   inkscape:window-y="32"
   inkscape:window-maximized="1"
   inkscape:current-layer="g176" />
<style
   type="text/css"
   id="style2">
	.st0{fill:#F5F3FA;}
</style>

<g
   id="g176"
   transform="matrix(1.4153612,0,0,1.4153612,9.0309453,3.0207022e-4)"><path
     id="path1724"
     style="enable-background:new 0 0 630 630;clip-rule:nonzero;fill:#f5f3fa;fill-rule:nonzero;stroke:none;stroke-width:12.4651;stroke-linecap:butt;stroke-linejoin:miter;stroke-miterlimit:4;color:#000000;display:inline;-inkscape-stroke:none;fill-opacity:1"
     d="M 313.83767,0.00944621 C 297.38795,-0.186978 283.00339,1.9594148 272.43923,4.216908 c -5.28211,1.128746 -9.60409,2.2895746 -12.77694,3.2359783 -0.47099,0.1404873 -0.74187,0.2394064 -1.16192,0.3698261 -9.79397,-1.7177898 -20.217,-2.8704576 -31.7112,-3.0565851 h -0.006 C 204.93738,4.4081685 186.15705,9.7039863 171.04064,18.557329 156.11406,13.374024 125.19146,4.4385943 92.568514,6.210933 69.899567,7.4424914 45.082273,14.361281 26.746369,33.740898 8.4104687,53.12051 -1.2650059,83.125648 0.77574611,123.92603 1.3387826,135.1853 4.5268543,153.55052 9.8530447,177.32174 c 5.3261923,23.77115 12.7858993,51.61123 22.1219483,77.00662 9.336044,25.39546 19.554797,48.21681 35.521244,63.73566 7.983223,7.75949 18.954562,14.30433 31.922339,13.75395 9.086744,-0.38566 17.279684,-4.38133 24.376784,-10.22818 3.45304,4.53316 7.13133,6.52834 10.4876,8.36525 4.23392,2.31715 8.3549,3.85579 12.61963,4.92227 7.66018,1.91566 20.75915,4.48088 36.1229,1.85327 5.23354,-0.89507 10.74312,-2.57491 16.23785,-5.02025 0.20937,6.1396 0.44249,12.1216 0.68584,18.19186 v 0.003 c 0.77066,19.20065 1.23628,36.94571 7.00461,52.5153 l 0.001,0.001 c 0.93429,2.5213 3.46549,15.63115 13.47795,27.19602 10.01247,11.56487 29.65684,18.78585 52.00887,13.99543 15.7468,-3.37447 35.81343,-9.46463 49.12063,-28.41175 13.16997,-18.75171 19.11009,-45.61856 20.27696,-89.21502 0.29455,-2.33697 0.6563,-4.35957 1.01564,-6.22219 l 3.12696,0.27461 0.39467,0.0179 c 16.81781,0.76519 35.06465,-1.63906 50.30739,-8.71851 13.50487,-6.26633 23.71927,-12.5876 31.1537,-23.80135 1.85862,-2.80339 3.89767,-6.15005 4.45172,-11.93655 0.55406,-5.78644 -2.75073,-14.82884 -8.26589,-19.01982 -11.03039,-8.38202 -17.96976,-5.20008 -25.41865,-3.66239 -9.83181,2.02814 -16.84113,2.60762 -22.28892,2.71436 21.44092,-36.12004 36.82946,-74.46868 45.59625,-108.41148 5.17742,-20.04575 8.09303,-38.50612 8.34178,-54.662505 C 430.50298,76.402033 429.18363,62.09617 419.50444,49.728976 389.26095,11.084723 346.73717,0.40229467 313.83767,0.00944621 Z M 309.89792,11.852161 h 0.001 c 31.12201,-0.289099 70.90313,8.46115 99.44458,44.93111 6.41913,8.203247 8.32956,20.19885 8.10168,34.952705 -0.22787,14.753854 -2.96059,32.416184 -7.95127,51.738394 -9.6857,37.49975 -27.93282,81.18832 -53.68688,120.37149 0.64489,0.47871 1.55602,1.02128 2.87582,1.56762 5.36581,2.22125 17.63941,4.1372 42.10221,-0.91214 6.15571,-1.27136 10.67299,-2.17827 15.35468,1.38409 2.34086,1.78115 3.64155,5.3295 3.3933,7.9071 -0.24824,2.57759 -1.25571,4.45721 -2.43423,6.2346 -2.19336,3.30797 -5.42328,6.52561 -9.41677,9.58788 0.55748,0.10103 0.50851,0.25012 -0.15317,0.12144 -4.5609,3.4743 -10.11781,6.74371 -16.43518,9.67758 h -0.003 c -10.60136,4.92013 -25.77079,7.50087 -39.25401,7.64905 -6.7416,0.0741 -12.97501,-0.44829 -18.26361,-2.092 -0.0763,-0.0237 -0.14894,-0.0531 -0.22493,-0.0773 -2.21128,20.69664 -6.97777,59.25471 -9.89147,76.13726 v 0.003 c -2.46247,14.28117 -6.73317,25.61955 -14.91586,34.12473 -8.18307,8.50558 -19.71843,13.62295 -35.27561,16.95818 l -0.003,0.003 c -19.24259,4.12231 -33.28328,-0.32115 -42.32991,-7.9416 -9.04662,-7.62041 -13.18513,-17.69404 -15.66103,-23.88276 v -0.003 c -1.71067,-4.27859 -2.60722,-9.79214 -3.45539,-17.17069 -0.84818,-7.37857 -1.47956,-16.41319 -1.91675,-26.5985 -0.59706,-13.90965 -0.81662,-29.97187 -0.68031,-46.67537 -9.06927,8.19098 -19.2316,12.36382 -28.64773,13.97474 -12.77199,2.18504 -24.19183,0.0441 -31.00191,-1.66008 -3.17584,-0.79404 -6.53535,-2.05458 -9.6555,-3.76174 -3.12067,-1.70747 -6.13954,-3.62203 -8.16239,-7.37306 -1.01146,-1.87551 -1.63075,-4.50525 -1.0391,-7.07224 0.59166,-2.56696 2.20077,-4.64715 4.03911,-6.14628 3.67665,-2.99833 8.52989,-4.64969 15.87078,-6.16285 h 0.001 c 13.31876,-2.74238 17.96592,-4.61236 20.81928,-6.88594 2.47935,-1.97563 4.73962,-5.53801 9.95356,-11.64815 -0.0119,-0.20163 -0.0366,-0.40391 -0.0511,-0.60579 -8.80858,-0.21752 -17.17782,-2.59139 -24.67071,-6.62651 -2.80503,2.95074 -17.00349,17.95328 -34.31793,38.78344 v 0.001 0.001 c -7.26421,8.73295 -15.32995,13.71769 -23.822041,14.07823 -8.492102,0.36054 -16.186895,-3.90322 -22.707046,-10.2406 C 62.788068,295.82909 52.372823,274.03977 43.316786,249.40609 34.260749,224.77235 26.895307,197.33873 21.659881,173.9726 16.42445,150.60653 13.320694,131.75203 12.866851,122.67579 10.935061,84.054158 19.956085,58.030818 35.456602,41.610742 50.957113,25.19066 72.218843,18.978824 92.92592,17.791457 c 2.588388,-0.148416 5.175379,-0.220785 7.75117,-0.226311 2.57579,-0.0055 5.14097,0.05551 7.68493,0.175253 30.9185,1.455356 57.4169,11.031394 64.21312,13.654587 13.76243,-9.353494 31.51159,-15.15608 53.64963,-14.793044 11.22289,0.184001 21.60283,1.638903 31.2158,4.032209 0.13792,-0.06684 0.23847,-0.113837 0.31739,-0.147655 0.18033,-0.07729 0.31276,-0.129023 0.46228,-0.186293 0.59811,-0.229061 1.41718,-0.513217 2.58879,-0.888686 2.34321,-0.750939 5.97042,-1.808727 10.64768,-2.902031 9.35451,-2.186608 22.88021,-4.512776 38.44121,-4.657325 z m -49.99414,8.188612 c -1.08996,0.03798 -1.05643,0.126974 -1.18951,0.158694 -0.26617,0.06345 -0.25006,0.06682 -0.23046,0.06072 0.76681,-0.07402 1.5407,-0.0052 2.28244,0.202852 -0.27376,-0.114302 -0.77327,-0.425364 -0.86247,-0.422264 z m 4.73736,2.322453 c 0.11127,0.122669 0.21762,0.249725 0.31877,0.380865 0.0639,0.02006 0.13215,0.03506 0.19595,0.0552 0.006,-0.0856 0.0124,-0.178034 0.0124,-0.178013 7e-5,9.3e-5 -0.44144,-0.211201 -0.52714,-0.25805 z"
     sodipodi:nodetypes="sssccccsscsssscccscccccscscccscsssccsscssscsscscsssccccsscccsccsccsscscssscccsccccccscsscsssscscssssscsccccccsc" /><path
     id="path133"
     style="enable-background:new 0 0 630 630;clip-rule:nonzero;fill:#f5f3fa;fill-rule:nonzero;stroke:none;stroke-width:12.4651;stroke-linecap:round;stroke-linejoin:round;stroke-miterlimit:4;display:inline;fill-opacity:1"
     d="m 310.01384,24.314472 c -12.33569,0.114589 -23.24721,1.736555 -31.61738,3.47195 23.15389,10.221042 40.56482,26.08012 52.86858,41.809667 10.12123,12.939329 16.9195,25.783222 21.01109,35.615081 2.04571,4.91591 3.41346,9.04945 4.19504,12.26498 0.3908,1.60777 0.65091,2.93583 0.72861,4.37995 0.0389,0.72208 0.0883,1.43929 -0.20975,2.67848 -0.008,0.0312 -0.0252,0.0755 -0.0331,0.10764 0.59556,16.38035 -3.54253,27.33201 -4.03911,42.90259 a 6.2331734,6.2331734 0 0 0 0,10e-4 6.2331734,6.2331734 0 0 0 0,0.001 6.2331734,6.2331734 0 0 0 0,0.001 c -0.36518,11.24051 2.50877,24.44109 3.21942,38.85381 0.6684,13.55585 -0.87879,28.44947 -9.70379,43.07508 0.73115,0.89841 1.42668,1.75995 2.13616,2.6288 23.23859,-36.63041 39.93434,-77.20381 48.85706,-111.74957 4.80367,-18.59821 7.35037,-35.45994 7.55659,-48.811526 0.2062,-13.350449 -2.29597,-23.040234 -5.45633,-27.078962 C 373.82949,31.62954 338.77321,24.047321 310.01384,24.314472 Z m -83.99193,4.749781 c -23.05271,-0.378035 -39.40961,6.353809 -51.71355,16.598016 -12.30393,10.244208 -20.54165,24.27516 -25.96786,38.653726 -6.32837,16.769015 -8.68963,33.571025 -9.59754,44.808295 0.11109,-0.0625 0.19678,-0.12375 0.30911,-0.18629 6.62581,-3.68941 15.32948,-7.42056 24.64173,-9.56856 4.65609,-1.07403 9.48917,-1.77938 14.29626,-1.77738 4.80717,0.002 9.5886,0.71218 14.13757,2.46873 9.09788,3.5131 16.61076,11.82963 19.33169,24.4099 13.05989,60.39678 -4.06196,82.86473 -10.36617,99.82821 v -0.004 c -2.64589,7.13111 -4.89653,13.42982 -6.19596,18.71761 0.81694,-0.20889 1.62932,-0.3507 2.43284,-0.42088 4.4522,-0.38884 7.94581,1.13078 10.01981,1.98989 a 6.2331734,6.2331734 0 0 0 0.001,0 c 6.34051,2.62836 10.72,8.15545 13.06121,14.47289 0.64599,1.74315 1.10544,3.60427 1.37028,5.51151 a 6.2325501,6.2325501 0 0 1 0.31325,2.09201 c -0.68883,24.62676 -0.59907,49.3618 0.25805,69.32997 0.42855,9.98409 1.05161,18.78395 1.84775,25.70981 0.796,6.9246 1.93213,12.18515 2.64398,13.96646 v 10e-4 c 2.37209,5.92902 5.8458,13.69703 12.11733,18.9798 6.27178,5.28316 15.25615,8.80378 31.68913,5.28382 14.24864,-3.05469 23.03839,-7.31313 28.90577,-13.41171 5.86734,-6.09863 9.37282,-14.59037 11.6164,-27.6031 a 6.2331734,6.2331734 0 0 1 0,-0.003 c 3.35222,-19.42268 10.07285,-75.60364 10.90573,-86.44685 -0.38642,-8.07325 0.82011,-14.25723 3.39881,-18.98395 2.64191,-4.84248 6.71436,-7.77878 10.25026,-9.37123 1.74218,-0.78461 3.38635,-1.32544 4.75116,-1.72631 -1.06458,-1.5423 -2.56426,-3.55575 -4.50967,-6.01244 -3.77379,-4.76554 -8.57597,-11.24464 -12.34364,-20.37907 -0.40223,-0.97498 -2.2993,-4.53014 -4.7691,-8.96 -2.46975,-4.4299 -5.5926,-10.01146 -8.85374,-16.26959 -6.52238,-12.51631 -13.6295,-27.69365 -17.31421,-42.46652 -3.68475,-14.7729 -4.22588,-30.04438 5.20792,-40.83819 8.36342,-9.56912 22.98503,-13.53743 44.98631,-11.31143 -0.63679,-1.96441 -1.03005,-3.53471 -2.11684,-6.14629 -3.6845,-8.8543 -10.0026,-20.811565 -19.32027,-32.72361 -18.63539,-23.824092 -48.80454,-47.446899 -95.4248,-48.211247 z m -125.34206,0.974244 c -2.348529,0.0013 -4.698722,0.06443 -7.040496,0.198712 C 74.905138,31.311447 57.19401,36.744848 44.521481,50.16918 31.848952,63.593498 23.494066,85.613274 25.316743,122.05344 a 6.2331734,6.2331734 0 0 0 0,0.001 c 0.344656,6.89259 3.362928,26.23093 8.50738,49.19101 5.144451,22.96 12.417558,49.9878 21.193243,73.85896 8.775685,23.87107 19.386791,44.63085 29.500531,54.46103 5.05686,4.91513 9.471414,6.89363 13.487612,6.72311 4.015781,-0.17049 8.857231,-2.49001 14.765441,-9.59202 16.42848,-19.7643 29.26851,-33.45296 33.5217,-37.95133 -15.60976,-13.3557 -24.8821,-34.98821 -21.59894,-58.46565 1.91479,-13.69262 2.17061,-26.50829 1.94296,-36.64176 -0.22447,-9.99214 -0.93135,-16.77263 -0.92594,-20.85239 a 6.2325501,6.2325501 0 0 1 -0.008,-0.0262 c 0,0 10e-4,-0.11945 10e-4,-0.12144 9e-5,-0.0205 -0.004,-0.0625 -0.004,-0.0828 a 6.2331734,6.2331734 0 0 1 0,-0.003 c 1.1e-4,-0.0167 0.004,-0.0262 0.004,-0.0428 -0.0193,-0.71372 -0.78489,-31.43847 10.97334,-62.595829 5.21762,-13.825717 12.95687,-27.841609 24.55618,-39.216745 -12.67533,-4.138346 -36.37896,-10.671937 -60.5535,-10.658719 z m 232.55299,97.958373 c -14.21905,-0.26635 -22.00605,3.15043 -25.94992,7.66285 -5.25852,6.0166 -5.74692,16.59097 -2.49771,29.61783 3.24924,13.02686 9.95854,27.60577 16.27373,39.72457 3.15762,6.05939 6.20853,11.51645 8.68539,15.9591 2.4769,4.44261 4.29963,7.5932 5.40664,10.27647 1.03901,2.519 2.17252,4.70759 3.33396,6.76865 4.8973,-10.30082 5.72238,-20.44518 5.2024,-30.99088 -0.64235,-13.02743 -3.66652,-26.36343 -3.2277,-39.87084 0.50504,-15.82691 3.8244,-25.98348 4.07499,-38.22456 -4.09971,-0.50586 -7.95061,-0.86041 -11.30178,-0.92319 z m -155.30764,2.12098 c -3.60926,-0.002 -7.50585,0.49237 -11.43149,1.39789 -7.85121,1.81106 -15.71907,5.1617 -21.37815,8.31281 -2.82957,1.57556 -5.12526,3.12097 -6.47472,4.2185 -0.22783,0.18531 -0.22766,0.21241 -0.39604,0.36569 0.0937,2.71115 0.63557,9.27735 0.8528,18.94668 0.2376,10.57637 -0.0192,24.05168 -2.06026,38.64683 -4.43466,31.71211 18.56966,57.96932 45.61695,58.00612 1.57311,-6.50782 4.17057,-13.0921 6.75346,-20.05341 a 6.2331734,6.2331734 0 0 1 0,-0.004 c 7.53971,-20.2882 22.35996,-35.07947 9.86801,-92.84981 -2.04049,-9.434 -6.08073,-13.26929 -11.63848,-15.4154 -2.77891,-1.07305 -6.10275,-1.56976 -9.71208,-1.57176 z m 147.3067,4.82844 c 3.70479,0.0118 6.48744,1.00724 6.70931,2.59706 0.284,2.039 -3.73259,7.47958 -8.97656,8.20655 -5.238,0.73 -9.71765,-3.52143 -10.00462,-5.55843 -0.277,-2.03897 3.74032,-4.28611 8.97932,-5.01611 1.14603,-0.15968 2.25521,-0.23238 3.29255,-0.22907 z m -146.00955,4.1564 c 1.03723,-0.003 2.14559,0.0705 3.29118,0.23046 5.245,0.73 9.26194,2.97573 8.97794,5.01473 -0.284,2.037 -4.76518,6.28981 -9.9991,5.55981 -5.243,-0.727 -9.26318,-6.16893 -8.97518,-8.20793 h 0.001 c 0.2164,-1.58906 2.99948,-2.58548 6.70378,-2.59707 z m 168.52617,134.142 c -0.013,0.005 -0.0299,0.0116 -0.0428,0.0166 -2.73437,0.96382 -4.97865,1.36626 -6.85972,2.21344 -1.8811,0.84718 -3.22341,1.77087 -4.4255,3.97425 -1.16644,2.13801 -2.17365,5.90571 -1.87949,12.34639 0.32816,0.25741 1.21528,0.8022 2.7323,1.27369 3.18533,0.99 8.50823,1.59537 14.42598,1.53037 11.83471,-0.13006 26.40011,-2.89914 34.14405,-6.49266 7.37154,-3.42343 13.64501,-7.95076 17.45911,-11.39837 -25.83736,5.33256 -40.44705,3.92434 -49.38697,0.22355 -2.57077,-1.06422 -4.52526,-2.35146 -6.16698,-3.68722 z m -148.95298,1.75391 c -0.13155,-0.003 -0.2576,2.8e-4 -0.38087,0.011 -0.98654,0.0862 -2.41665,0.40322 -5.16238,3.47609 a 6.2331734,6.2331734 0 0 1 -0.004,0.004 c -6.46506,7.2217 -8.70638,11.77207 -14.03545,16.01844 -5.32913,4.24638 -12.25407,6.50216 -26.07412,9.34777 -4.36892,0.90054 -6.86609,1.86551 -8.53774,2.64812 0.5307,0.4299 0.47654,0.51221 1.29577,0.96044 2.00741,1.09834 4.61152,2.08337 6.69965,2.60535 a 6.2331734,6.2331734 0 0 0 0.001,0 c 5.9578,1.49084 15.69216,3.20833 25.87126,1.46688 10.1791,-1.74145 20.76638,-6.61033 29.80826,-19.27098 a 6.2331734,6.2331734 0 0 1 0.003,-0.003 c 1.55315,-2.1743 1.72645,-5.41233 0.44297,-8.87582 -1.28354,-3.4635 -4.13654,-6.4577 -6.14491,-7.29027 -1.71367,-0.70974 -2.86164,-1.07557 -3.78244,-1.09844 z" /></g></svg>
