<?xml version="1.0" encoding="UTF-8" standalone="no"?>
<!-- Generator: Adobe Illustrator 25.4.1, SVG Export Plug-In . SVG Version: 6.00 Build 0)  -->

<svg
   version="1.1"
   id="Layer_1"
   x="0px"
   y="0px"
   viewBox="0 0 132 132"
   style="enable-background:new 0 0 132 132;"
   xml:space="preserve"
   sodipodi:docname="python.svg"
   inkscape:version="1.2.2 (b0a8486541, 2022-12-01)"
   xmlns:inkscape="http://www.inkscape.org/namespaces/inkscape"
   xmlns:sodipodi="http://sodipodi.sourceforge.net/DTD/sodipodi-0.dtd"
   xmlns="http://www.w3.org/2000/svg"
   xmlns:svg="http://www.w3.org/2000/svg"><defs
   id="defs953" /><sodipodi:namedview
   id="namedview951"
   pagecolor="#ffffff"
   bordercolor="#000000"
   borderopacity="0.25"
   inkscape:showpageshadow="2"
   inkscape:pageopacity="0.0"
   inkscape:pagecheckerboard="0"
   inkscape:deskcolor="#d1d1d1"
   showgrid="false"
   inkscape:zoom="5.3896209"
   inkscape:cx="61.878193"
   inkscape:cy="68.650469"
   inkscape:window-width="1920"
   inkscape:window-height="1012"
   inkscape:window-x="0"
   inkscape:window-y="32"
   inkscape:window-maximized="1"
   inkscape:current-layer="Layer_1" />
<style
   type="text/css"
   id="style942">
	.st0{opacity:0.5;fill:#F5F3FA;}
	.st1{opacity:0.75;fill:#F5F3FA;}
	.st2{fill:#F5F3FA;}
</style>



<path
   id="path1948"
   style="fill:#f5f3fa;fill-opacity:1;stroke:none;stroke-width:1.18096"
   d="M 65.21402,0 C 59.771101,0.02501689 54.573236,0.48415079 49.99965,1.2846114 36.526438,3.638905 34.080229,8.5666425 34.080229,17.654231 v 12.00194 h 31.838848 v 4.000647 H 34.080229 22.131381 c -9.253257,0 -17.3556731,5.501034 -19.8900042,15.965884 -2.92332032,11.995148 -3.05299128,19.480315 0,32.005175 2.2632095,9.323022 7.6680891,15.965878 16.9213472,15.965878 H 30.10965 V 83.206114 c 0,-10.394226 9.092569,-19.562794 19.89,-19.562796 h 31.801745 c 8.852478,0 15.919425,-7.209285 15.919425,-16.002588 V 17.654231 C 97.72082,9.1199022 90.441696,2.7089556 81.801395,1.2846114 76.331954,0.38409146 70.656938,-0.02501454 65.21402,0 Z M 47.995806,9.6529369 c 3.288735,0 5.974424,2.6997641 5.974424,6.0193221 -3e-6,3.307792 -2.685689,5.982618 -5.974424,5.982618 -3.300525,-10e-7 -5.974418,-2.674828 -5.974418,-5.982618 0,-3.319557 2.673893,-6.0193221 5.974418,-6.0193221 z" /><path
   id="path1950"
   style="fill:#f5f3fa;fill-opacity:1;stroke:none;stroke-width:1.18096"
   d="M 101.69141,33.656818 V 47.64073 c 0,10.841539 -9.292971,19.96653 -19.890015,19.966532 H 49.99965 c -8.711034,0 -15.919421,7.374089 -15.919421,16.002587 v 29.986491 c 0,8.53433 7.50308,13.55413 15.919421,16.00259 10.078391,2.9311 19.743041,3.46082 31.801745,0 8.015559,-2.29543 15.919425,-6.91501 15.919425,-16.00259 V 101.5944 H 65.919077 v -4.000645 h 31.801743 15.91944 c 9.25326,0 12.70141,-6.38389 15.91942,-15.965878 3.3241,-9.864507 3.18266,-19.350829 0,-32.005175 -2.2868,-9.111128 -6.65439,-15.965884 -15.91942,-15.965884 z M 83.805238,109.5957 c 3.300527,1e-5 5.974424,2.67483 5.974424,5.98261 -3e-6,3.31956 -2.6739,6.01933 -5.974424,6.01933 -3.288738,0 -5.974423,-2.69977 -5.974423,-6.01933 2e-6,-3.30778 2.685681,-5.98261 5.974423,-5.98261 z" /></svg>
