<?xml version="1.0" encoding="utf-8"?>
<!-- Generator: Adobe Illustrator 25.4.1, SVG Export Plug-In . SVG Version: 6.00 Build 0)  -->
<svg version="1.1" id="Layer_1" xmlns="http://www.w3.org/2000/svg" xmlns:xlink="http://www.w3.org/1999/xlink" x="0px" y="0px"
	 viewBox="0 0 128 128" style="enable-background:new 0 0 128 128;" xml:space="preserve">
<style type="text/css">
	.st0{fill:#F5F3FA;}
</style>
<g id="group">
	<path id="Path" class="st0" d="M101.3,37.3l-9.5,9.5c15.6,15.6,15.6,40.7,0,56.1c-15.6,15.6-40.7,15.6-56.1,0
		c-15.6-15.6-15.6-40.7,0-56.1l24.7-24.7l3.5-3.5V0L26.7,37.3c-20.8,20.8-20.8,54.3,0,75.1c20.8,20.8,54.3,20.8,74.7,0
		C122.1,91.4,122.1,58.1,101.3,37.3z"/>
	<path id="Path-1" class="st0" d="M89.6,28c0,3.8-3.1,6.9-6.9,6.9c-3.8,0-6.9-3.1-6.9-6.9s3.1-6.9,6.9-6.9
		C86.5,21.1,89.6,24.2,89.6,28z"/>
</g>
</svg>
