<?xml version="1.0" encoding="utf-8"?>
<!-- Generator: Adobe Illustrator 25.4.1, SVG Export Plug-In . SVG Version: 6.00 Build 0)  -->
<svg version="1.1" id="Layer_1" xmlns="http://www.w3.org/2000/svg" xmlns:xlink="http://www.w3.org/1999/xlink" x="0px" y="0px"
	 viewBox="0 0 30 30" style="enable-background:new 0 0 30 30;" xml:space="preserve">
<style type="text/css">
	.st0{fill:#F5F3FA;}
</style>
<g>
	<path class="st0" d="M11,10c-2.4,0-3,1.8-3,4.7S8.6,19,11,19s3-1.4,3-4.3S13.4,10,11,10z"/>
	<path class="st0" d="M28.6,3H4.1L0,7.2v18.4C0,27,1.4,27,1.4,27h24.5l4.1-4.2V4.4C30,3,28.6,3,28.6,3z M15.7,23.1l-1.9,0.7L12.2,21
		H11c-4,0-5-2.3-5-6.5S7.1,8,11,8s5,2.2,5,6.5c0,2.8-0.4,5.1-1.8,5.8L15.7,23.1z M24,13h-3v3.9c0,1.4,0.1,2.1,1,2.1h2v2h-2.2
		C20,21,19,19.9,19,17.1V13h-2v-2h2V8h2v3h3V13z"/>
</g>
</svg>
