<?xml version="1.0" encoding="utf-8"?>
<!-- Generator: Adobe Illustrator 25.4.1, SVG Export Plug-In . SVG Version: 6.00 Build 0)  -->
<svg version="1.1"
	 id="svg19" sodipodi:docname="sqlite-ar21.svg" xmlns:cc="http://creativecommons.org/ns#" xmlns:dc="http://purl.org/dc/elements/1.1/" xmlns:inkscape="http://www.inkscape.org/namespaces/inkscape" xmlns:rdf="http://www.w3.org/1999/02/22-rdf-syntax-ns#" xmlns:sodipodi="http://sodipodi.sourceforge.net/DTD/sodipodi-0.dtd" xmlns:svg="http://www.w3.org/2000/svg"
	 xmlns="http://www.w3.org/2000/svg" xmlns:xlink="http://www.w3.org/1999/xlink" x="0px" y="0px" viewBox="0 0 60 60"
	 style="enable-background:new 0 0 60 60;" xml:space="preserve">
<style type="text/css">
	.st0{opacity:0.75;fill:#F5F3FA;}
	.st1{fill:#F5F3FA;}
</style>
<g>
	<path id="path13" inkscape:connector-curvature="0" class="st0" d="M45.4,2.7H7.8c-2.5,0-4.6,2.1-4.6,4.6v41.5
		c0,2.5,2.1,4.6,4.6,4.6h24.8C32.3,41,36.5,17.1,45.4,2.7z"/>
	<path id="path17" inkscape:connector-curvature="0" class="st1" d="M54.2,1.3c-2.6-2.3-5.7-1.4-8.8,1.4C45,3.1,44.5,3.5,44,4
		c-5.3,5.6-10.2,15.9-11.7,23.9c0.6,1.2,1.1,2.7,1.4,3.9c0.1,0.3,0.1,0.6,0.2,0.8c0.1,0.6,0.2,0.9,0.2,0.9s0-0.2-0.2-0.7
		c0-0.1-0.1-0.2-0.1-0.4c0-0.1-0.1-0.1-0.1-0.2c-0.3-0.8-1.3-2.5-1.7-3.2c-0.3,1-0.6,2-0.9,2.9c1.2,2.2,1.9,6,1.9,6
		s-0.1-0.2-0.4-1.1c-0.3-0.8-1.6-3.1-1.9-3.7c-0.5,2-0.8,3.4-0.6,3.7c0.4,0.6,0.7,1.7,1.1,3c0.7,2.7,1.2,6.1,1.2,6.1s0,0.2,0,0.6
		c-0.1,2.3,0,4.7,0.1,6.9c0.2,2.9,0.7,5.3,1.3,6.6l0.4-0.2c-0.8-2.6-1.2-6-1-9.9c0.2-6,1.6-13.2,4.2-20.8
		C41.6,17.7,47.6,8.6,53.1,4.3c-5,4.5-11.7,19.1-13.7,24.5c-2.3,6-3.9,11.7-4.8,17.1c1.7-5.1,7.1-7.3,7.1-7.3s2.6-3.3,5.7-7.9
		c-1.8,0.4-4.9,1.1-5.9,1.6c-1.5,0.6-1.9,0.8-1.9,0.8s4.9-3,9-4.3C54.2,19.7,60.5,6.9,54.2,1.3"/>
</g>
</svg>
