<?xml version="1.0" encoding="UTF-8" standalone="no"?>
<svg
   id="Layer_1"
   data-name="Layer 1"
   viewBox="0 0 2499.99 2499.95"
   version="1.1"
   sodipodi:docname="swift.svg"
   xml:space="preserve"
   inkscape:version="1.2.2 (b0a8486541, 2022-12-01)"
   xmlns:inkscape="http://www.inkscape.org/namespaces/inkscape"
   xmlns:sodipodi="http://sodipodi.sourceforge.net/DTD/sodipodi-0.dtd"
   xmlns="http://www.w3.org/2000/svg"
   xmlns:svg="http://www.w3.org/2000/svg"><sodipodi:namedview
     id="namedview9"
     pagecolor="#ffffff"
     bordercolor="#000000"
     borderopacity="0.25"
     inkscape:showpageshadow="2"
     inkscape:pageopacity="0.0"
     inkscape:pagecheckerboard="0"
     inkscape:deskcolor="#d1d1d1"
     showgrid="false"
     inkscape:zoom="0.23333872"
     inkscape:cx="1392.825"
     inkscape:cy="1392.825"
     inkscape:window-width="1920"
     inkscape:window-height="1012"
     inkscape:window-x="0"
     inkscape:window-y="32"
     inkscape:window-maximized="1"
     inkscape:current-layer="g344" /><defs
     id="defs4"><style
       id="style2">.cls-1{fill:#f5f3fa;}</style></defs><g
     id="g344"
     transform="matrix(20.269745,0,0,20.269745,132.53242,666.60707)"
     style="fill:#f5f3fa;fill-opacity:1"><path
       id="path292"
       d="M 18.578113 5.1793561e-06 C 17.868414 5.1793561e-06 17.159508 -1.6193866e-05 16.450509 0.004083802 C 15.852809 0.0077837983 15.254985 0.014580258 14.658186 0.030780241 C 14.332786 0.039580233 14.006682 0.050999945 13.680382 0.06669993 C 12.701583 0.11389988 11.721302 0.20041168 10.756103 0.37431151 C 9.7768037 0.55031133 8.8482184 0.80990865 7.9448193 1.1834083 C 7.6437196 1.3078082 7.3452807 1.4450055 7.048681 1.5959053 C 6.1738819 2.0411049 5.3548884 2.5886059 4.6099891 3.2248053 C 4.3616894 3.4369051 4.1215901 3.6587845 3.8903903 3.8900843 C 2.9649912 4.8152833 2.1894181 5.8821981 1.5961187 7.0480969 C 0.99171929 8.2352957 0.60872209 9.4505201 0.37392233 10.757419 C 0.14292256 12.044318 0.066086246 13.356896 0.031086281 14.657694 C 0.014686297 15.255694 0.0077800097 15.852718 0.0038800136 16.450017 C -0.00061998195 17.159417 -1.3217184e-05 17.868886 -1.3217184e-05 18.578085 L -1.3217184e-05 28.259994 L -1.3217184e-05 40.812511 C -1.3217184e-05 41.522411 -0.00071998185 42.23119 0.0038800136 42.941089 C 0.0077800097 43.538388 0.014686297 44.135393 0.031086281 44.732392 C 0.066086246 46.033891 0.14282256 47.346786 0.37392233 48.633085 C 0.60872209 49.939584 0.99171929 51.155879 1.5961187 52.342778 C 2.1894181 53.508976 2.9649912 54.57562 3.8903903 55.500419 C 4.8150894 56.426019 5.8823212 57.201387 7.0488201 57.795386 C 8.2351189 58.399186 9.4503821 58.782102 10.756381 59.016702 C 12.04318 59.248302 13.35678 59.325294 14.658279 59.360094 C 15.255078 59.375994 15.852902 59.383113 16.450602 59.386513 C 17.159601 59.391613 17.868506 59.390916 18.578206 59.390916 L 40.812817 59.390916 C 41.521817 59.390916 42.231508 59.391613 42.940607 59.386513 C 43.538106 59.383113 44.135184 59.375994 44.732884 59.360094 C 46.034682 59.325294 47.347322 59.248202 48.63492 59.016702 C 49.940619 58.782102 51.156004 58.399086 52.342203 57.795386 C 53.508602 57.201487 54.575495 56.426019 55.500494 55.500419 C 56.425693 54.57552 57.201381 53.508976 57.79458 52.342778 C 58.398979 51.155879 58.782501 49.939684 59.017101 48.633085 C 59.248301 47.346786 59.325183 46.033891 59.359983 44.732392 C 59.376383 44.135393 59.382987 43.538488 59.386587 42.941089 C 59.391187 42.23119 59.390805 41.522411 59.390805 40.812511 L 59.390805 18.578085 C 59.390905 17.868886 59.39118 17.159409 59.38668 16.45011 C 59.38318 15.852811 59.376622 15.255787 59.360122 14.657787 C 59.325322 13.356988 59.248393 12.04441 59.017193 10.757512 C 58.782594 9.4506128 58.399118 8.2353884 57.794719 7.0481896 C 57.20142 5.8822908 56.425786 4.815376 55.500586 3.890177 C 54.575587 2.9649779 53.508695 2.1895048 52.342296 1.5959053 C 51.156097 0.99220595 49.940712 0.60881858 48.635013 0.37421881 C 47.347414 0.14231904 46.034821 0.06588751 44.733023 0.030687545 C 44.135323 0.014487562 43.538199 0.0076911024 42.9407 0.0039911061 C 42.2315 -8.8899355e-06 41.521817 5.1793561e-06 40.812817 5.1793561e-06 L 25.09121 5.1793561e-06 L 18.578113 5.1793561e-06 z M 33.515791 8.4354775 C 43.69628 14.548971 49.712398 26.160029 47.247401 35.980919 C 47.189901 36.210119 47.122101 36.432285 47.056401 36.655885 C 47.057901 36.657585 47.059218 36.658905 47.060618 36.660705 C 52.163513 42.939499 50.775519 49.669907 50.12232 48.399908 C 47.455223 43.210513 42.486187 44.535284 39.970489 45.841082 C 39.761789 45.965382 39.548389 46.083103 39.33339 46.198703 C 39.30859 46.214003 39.27822 46.230507 39.25432 46.245607 L 39.258399 46.239582 C 34.022404 49.021879 26.9923 49.227901 19.922807 46.189804 C 13.994713 43.641907 9.1239932 39.277496 5.9614964 34.219001 C 7.5695947 35.406199 9.3067972 36.451086 11.154695 37.317085 C 18.625788 40.816182 26.129516 40.563499 31.439911 37.313702 C 23.881818 31.501208 17.573074 23.931691 12.735579 17.796797 C 11.80508 16.696498 10.958577 15.553621 10.246877 14.366722 C 16.039672 19.668617 25.190104 26.326315 28.473501 28.169013 C 21.504408 20.80612 15.363609 11.738815 15.651609 12.029115 C 26.627498 23.088604 36.754402 29.341292 36.754402 29.341292 C 37.135802 29.551592 37.419811 29.719706 37.645211 29.867805 C 37.85291 29.334806 38.040823 28.786389 38.197122 28.21499 C 39.949721 21.808796 37.977086 14.483371 33.515791 8.4354775 z "
       style="fill:#f5f3fa;fill-opacity:1"
       transform="matrix(2.0789828,0,0,2.0789828,-6.6749454,-33.025469)" /></g></svg>
