<?xml version="1.0" encoding="utf-8"?>
<!-- Generator: Adobe Illustrator 25.4.1, SVG Export Plug-In . SVG Version: 6.00 Build 0)  -->
<svg version="1.1"
	 id="Layer_1" xmlns:cc="http://creativecommons.org/ns#" xmlns:dc="http://purl.org/dc/elements/1.1/" xmlns:rdf="http://www.w3.org/1999/02/22-rdf-syntax-ns#"
	 xmlns="http://www.w3.org/2000/svg" xmlns:xlink="http://www.w3.org/1999/xlink" x="0px" y="0px" viewBox="0 0 512 512"
	 style="enable-background:new 0 0 512 512;" xml:space="preserve">
<style type="text/css">
	.st0{fill:#F5F3FA;}
</style>
<path class="st0" d="M462,0H50C22.4,0,0,22.4,0,50v412c0,27.6,22.4,50,50,50h412c27.6,0,50-22.4,50-50V50C512,22.4,489.6,0,462,0z
	 M297,284h-64v183h-51V284h-64v-41h179V284z M462,434.1c-4,9-10.9,15.7-19,21c-8,4.9-17,8.7-28,11s-22,3.4-34,3.4s-24-1-35-3.1
	c-11-2.1-20.9-5.2-29-9.4v-48c-0.6-0.5-1.3-1-1.9-1.5l1.9-0.4v2c8.5,6.7,17.9,11.9,28.1,15.5c10,3.8,21,5.7,32,5.7
	c7,0,12.3-0.6,17-1.7c4.9-1.2,8.8-2.8,12-4.8s5.6-4.4,7.1-7.2c1.5-2.8,2.3-5.8,2.3-9c0-4.6-1.3-8.6-3.8-12c-2.3-3.4-5.7-6.6-10-9.5
	c-4-2.9-9-5.7-15-8.4c-6-2.7-12.1-5.5-19-8.3c-17-8-30.4-16-39-27c-8.7-10-13-23-13-38c0-12,2.3-21.6,7-30c5-9,10.9-15.6,19-21
	c8-5.5,17-9.5,28-12s22-3.8,34-3.8s22,0.7,31,2.1c9,1.4,17.4,3.6,25,6.5v47c-3.5-2.6-7.6-4.9-12-6.9c-4.7-2-9.3-3.6-14-4.9
	s-9.4-2.3-14-2.9c-4.4-0.6-8.8-0.9-13-0.9c-6.1,0-11.3,0.5-16,1.6c-4.8,1.1-8.8,2.6-12,4.6s-5.7,4.3-7.5,7.1s-2.7,5.9-2.7,9.3
	c0,3.7,1,7,3,10c2,2.9,4.8,5.7,8.5,8.4c3.3,2.6,7.8,5.2,13,7.8c6,2.6,11.4,5.2,18,7.9c9,3.8,17,8,24,12s12.9,8.7,18,14
	c5.4,5,9.3,11,12,18s4.1,14.9,4.1,24C469.1,415.1,466,425.1,462,434.1z"/>
</svg>
