<?xml version="1.0" encoding="utf-8"?>
<!-- Generator: Adobe Illustrator 25.4.1, SVG Export Plug-In . SVG Version: 6.00 Build 0)  -->
<svg version="1.1"
	 id="Logo" xmlns:cc="http://creativecommons.org/ns#" xmlns:dc="http://purl.org/dc/elements/1.1/" xmlns:inkscape="http://www.inkscape.org/namespaces/inkscape" xmlns:rdf="http://www.w3.org/1999/02/22-rdf-syntax-ns#" xmlns:sodipodi="http://sodipodi.sourceforge.net/DTD/sodipodi-0.dtd" xmlns:svg="http://www.w3.org/2000/svg"
	 xmlns="http://www.w3.org/2000/svg" xmlns:xlink="http://www.w3.org/1999/xlink" x="0px" y="0px" viewBox="0 0 325.7 367.8"
	 style="enable-background:new 0 0 325.7 367.8;" xml:space="preserve">
<style type="text/css">
	.st0{fill:#F5F3FA;}
</style>
<g id="g849">
	<path id="path6" class="st0" d="M325.7,257.5V85.8L177,0v65.9l58.2,33.7c2.3,1.5,2.3,4.6,0,5.4l-69,39.8c-2.3,1.5-4.6,0.8-6.1,0
		l-69-39.8c-2.3-0.8-2.3-4.6,0-5.4l58.2-33.7V0L0,85.8v171.6v-0.8v0.8l56.7-33v-67.4c0-2.3,3.1-3.8,4.6-3.1l69,39.8
		c2.3,1.5,3.1,3.1,3.1,5.4v79.7c0,2.3-3.1,3.8-4.6,3.1l-58.2-33.7l-56.7,33l148.7,86.6L311.1,282l-56.7-33l-58.2,33.7
		c-2.3,1.5-4.6,0-4.6-3.1V200c0-2.3,1.5-4.6,3.1-5.4l69-39.8c2.3-1.5,4.6,0,4.6,3.1v67.4L325.7,257.5z"/>
</g>
</svg>
