<?xml version="1.0" encoding="utf-8"?>
<!-- Generator: Adobe Illustrator 25.4.1, SVG Export Plug-In . SVG Version: 6.00 Build 0)  -->
<svg version="1.1" id="Layer_1" xmlns="http://www.w3.org/2000/svg" xmlns:xlink="http://www.w3.org/1999/xlink" x="0px" y="0px"
	 viewBox="0 0 168.6 170.3" style="enable-background:new 0 0 168.6 170.3;" xml:space="preserve">
<style type="text/css">
	.st0{clip-path:url(#SVGID_00000182528849328307867270000003989738899518215829_);}
	.st1{clip-path:url(#SVGID_00000078724852868240505020000002324446921905316749_);fill:#F5F3FA;}
	.st2{clip-path:url(#SVGID_00000176727963944253007320000007588684475229419692_);}
	.st3{clip-path:url(#SVGID_00000178163307228657323950000016741359430611923842_);fill:#F5F3FA;}
</style>
<g>
	<g>
		<g>
			<defs>
				<path id="SVGID_1_" d="M120.8,110.2c-3,0-4.2-1.8-4.2-1.8c-0.2-0.8-0.4-12.7-0.5-24.5c-0.1-12.3,0-24.5,0.6-24.6
					c3.5-6.5,14.5-19.6,14.5-19.6c-20.6,4.1-31.8,17.6-31.8,17.6c-3.3-2.6-10.1-2.2-10.1-2.2c3.2,1.7,6.3,6.8,6.3,11v41.4
					c0,0-6.9,6.1-12.2,6.1c-3.2,0-5.1-1.7-6.2-3.1c-0.7-1-1-1.8-1-1.8V57.6c-0.7,0.5-1.6,0.9-2.5,0.9c-1.1,0-2.3-0.6-3.1-2.2
					c-0.6-1.3-1-3.1-1-5.9c0-9.4,10.7-15.7,10.7-15.7c-13.5,3.6-26.1,10.6-42.8,29.8S24,99.5,24,99.5s4.5-11,15.6-22.5
					c5.3-5.4,9.2-7.2,11.9-7.3c3,0,4.4,2.2,4.4,4.2v38.9c0,3.8-2.5,4.7-4.8,4.6c-1.9,0-3.7-0.7-3.7-0.7
					C58.8,133.2,86,135.6,86,135.6l12-12.8l0.3,0.2l11,9.3c20-11.9,29.7-34,29.7-34C129.9,108,124.2,110.2,120.8,110.2"/>
			</defs>
			<use xlink:href="#SVGID_1_"  style="overflow:visible;fill:#F5F3FA;"/>
			<clipPath id="SVGID_00000062168829209309573930000000610040228423732922_">
				<use xlink:href="#SVGID_1_"  style="overflow:visible;"/>
			</clipPath>
			<g style="clip-path:url(#SVGID_00000062168829209309573930000000610040228423732922_);">
				<g>
					<defs>
						<rect id="SVGID_00000167373080806229189060000002734414223381006013_" x="-78" y="-94.5" width="705.6" height="470.4"/>
					</defs>
					<use xlink:href="#SVGID_00000167373080806229189060000002734414223381006013_"  style="overflow:visible;fill:#F5F3FA;"/>
					<clipPath id="SVGID_00000067231770862437681950000006789003938695338625_">
						<use xlink:href="#SVGID_00000167373080806229189060000002734414223381006013_"  style="overflow:visible;"/>
					</clipPath>
					
						<rect x="22.5" y="33.5" style="clip-path:url(#SVGID_00000067231770862437681950000006789003938695338625_);fill:#F5F3FA;" width="117.6" height="103.4"/>
				</g>
			</g>
		</g>
	</g>
	<g>
		<g>
			<defs>
				<path id="SVGID_00000023261707276716207850000015352352058645861042_" d="M84.4,5.2c21.2,0,41.2,8.3,56.2,23.5
					c15,15.1,23.3,35.3,23.3,56.7s-8.3,41.5-23.3,56.7c-15,15.1-35,23.5-56.2,23.5s-41.2-8.3-56.2-23.5C13.2,127,4.9,106.8,4.9,85.4
					s8.3-41.5,23.3-56.7S63.1,5.2,84.4,5.2 M84.4,1.5C38.4,1.5,1.2,39,1.2,85.3s37.2,83.8,83.1,83.8s83.1-37.5,83.1-83.8
					C167.5,39,130.3,1.5,84.4,1.5"/>
			</defs>
			<use xlink:href="#SVGID_00000023261707276716207850000015352352058645861042_"  style="overflow:visible;fill:#F5F3FA;"/>
			<clipPath id="SVGID_00000027588552395766914050000007087573587173697970_">
				<use xlink:href="#SVGID_00000023261707276716207850000015352352058645861042_"  style="overflow:visible;"/>
			</clipPath>
			<g style="clip-path:url(#SVGID_00000027588552395766914050000007087573587173697970_);">
				<g>
					<defs>
						<rect id="SVGID_00000147209916029207711140000004860046675409876617_" x="-78" y="-94.5" width="705.6" height="470.4"/>
					</defs>
					<use xlink:href="#SVGID_00000147209916029207711140000004860046675409876617_"  style="overflow:visible;fill:#F5F3FA;"/>
					<clipPath id="SVGID_00000079488444565040204220000008844698174025667969_">
						<use xlink:href="#SVGID_00000147209916029207711140000004860046675409876617_"  style="overflow:visible;"/>
					</clipPath>
					
						<rect y="0.3" style="clip-path:url(#SVGID_00000079488444565040204220000008844698174025667969_);fill:#F5F3FA;" width="168.6" height="170"/>
				</g>
			</g>
		</g>
	</g>
</g>
</svg>
