<?xml version="1.0" encoding="utf-8"?>
<!-- Generator: Adobe Illustrator 25.4.1, SVG Export Plug-In . SVG Version: 6.00 Build 0)  -->
<svg version="1.1" id="Layer_1" xmlns="http://www.w3.org/2000/svg" xmlns:xlink="http://www.w3.org/1999/xlink" x="0px" y="0px"
	 viewBox="0 0 2222 2500" style="enable-background:new 0 0 2222 2500;" xml:space="preserve">
<style type="text/css">
	.st0{fill:#F5F3FA;}
</style>
<g transform="matrix(.994 0 0 1 -102 -92)">
	<path class="st0" d="M1444.1,1653.9h-87.6v-280.4c28,15.6,64.9,44.2,87.6,71.8V1653.9z"/>
	<g>
		<path class="st0" d="M706.6,1653.9H597.4l-142.3-439.9h99.2l97.9,308.4h1.2l99.2-308.4h99.8L706.6,1653.9z"/>
		<path class="st0" d="M1146.5,1653.9h-83.2v-44.4h-1.8c-11.1,18.5-25.4,31.9-43.1,40.1c-17.7,8.2-35.8,12.3-54.3,12.3
			c-23.5,0-42.7-3.1-57.6-9.2c-15-6.1-26.7-14.9-35.4-26.1c-8.6-11.3-14.7-25-18.2-41.4c-3.5-16.2-5.2-34.3-5.2-53.9v-196h87.6V1515
			c0,26.3,4.1,45.9,12.3,58.9c8.2,13,22.9,19.4,43.8,19.4c23.7,0,41-7.1,51.8-21.3c10.7-14.2,16-37.5,16-69.9v-166.9h87.6v319.2
			L1146.5,1653.9z"/>
	</g>
	<g>
		<polygon class="st0" points="1672.7,1334.7 1551.9,1453.3 1685.6,1653.9 1580,1653.9 1459.2,1461.9 1459.2,1449 1569.2,1334.7 		
			"/>
		<path class="st0" d="M1702.9,1433.9c1.2-20.5,6.4-37.5,15.4-51.1c9-13.6,20.5-24.4,34.5-32.6s29.8-14.1,47.2-17.6
			c17.4-3.5,34.9-5.2,52.6-5.2c16,0,32.3,1.1,48.7,3.4c16.5,2.3,31.5,6.7,45.1,13.3c13.5,6.6,24.6,15.7,33.2,27.4
			c8.6,11.7,12.9,27.2,12.9,46.6v165.8c0,14.4,0.8,28.3,2.5,41.4c1.6,13.2,4.5,23.1,8.6,29.5h-88.9c-1.6-4.9-3-10-4-15.1
			c-1-5.1-1.7-10.4-2.2-15.7c-14,14.4-30.4,24.4-49.4,30.2c-18.9,5.7-38.2,8.6-58,8.6c-15.2,0-29.3-1.9-42.5-5.5
			c-13.2-3.7-24.6-9.4-34.5-17.3c-9.9-7.8-17.6-17.7-23.1-29.5c-5.5-11.9-8.3-26.1-8.3-42.5c0-18.1,3.2-33,9.6-44.6
			c6.4-11.7,14.6-21,24.6-28c10.1-7,21.6-12.2,34.5-15.7c12.9-3.5,25.9-6.3,39-8.3c13.2-2,26.1-3.7,38.8-4.9
			c12.7-1.2,23.9-3.1,33.9-5.5c9.9-2.5,17.7-6.1,23.5-10.8c5.8-4.7,8.4-11.6,8-20.6c0-9.4-1.6-17-4.6-22.4
			c-3.1-5.5-7.2-9.9-12.3-12.9c-5.1-3.1-11.1-5.1-17.9-6.2c-6.8-1-14.1-1.6-21.8-1.6c-17.3,0-30.8,3.7-40.8,11.1
			c-9.9,7.4-15.6,19.7-17.3,37.1h-87.6L1702.9,1433.9z M1905,1498.6c-3.7,3.3-8.3,5.8-13.9,7.7c-5.5,1.9-11.5,3.4-17.9,4.6
			c-6.4,1.2-13,2.3-20,3.1c-7,0.8-14,1.8-21,3.1c-6.6,1.2-13,2.9-19.4,4.9c-6.4,2.1-11.9,4.8-16.6,8.3s-8.5,7.9-11.4,13.2
			c-2.9,5.3-4.3,12.1-4.3,20.3c0,7.8,1.4,14.4,4.3,19.7c2.9,5.3,6.8,9.6,11.7,12.6c4.9,3.1,10.7,5.2,17.3,6.5s13.3,1.8,20.3,1.8
			c17.3,0,30.6-2.9,40.1-8.6c9.4-5.8,16.5-12.6,20.9-20.7c4.5-8,7.3-16.1,8.3-24.4c1-8.2,1.5-14.8,1.6-19.7v-32.8L1905,1498.6z"/>
		<path class="st0" d="M2039.3,1334.7h83.2v44.4h1.8c11.1-18.5,25.4-31.9,43.1-40.3c17.7-8.4,35.8-12.6,54.1-12.6
			c23.5,0,42.7,3.2,57.6,9.6c15,6.4,26.7,15.2,35.4,26.5c8.6,11.3,14.7,25,18.2,41.2c3.5,16.2,5.2,34.3,5.2,53.9v196h-87.6v-179.9
			c0-26.3-4.1-45.9-12.3-58.9c-8.2-12.9-22.9-19.4-43.8-19.4c-23.7,0-41,7.1-51.8,21.3c-10.7,14.1-16,37.5-16,69.9v166.9H2039
			v-319.2L2039.3,1334.7z"/>
	</g>
	<path class="st0" d="M1202.6,1280.8v373.1h87.6v-325.6c-28-17.2-57.4-33.4-87.6-48.3V1280.8z"/>
	<path class="st0" d="M309.8,1295.9c50.7-148.6,353.7-203.1,677.2-121.6c194.1,48.7,351.5,143.4,457.2,237.2
		c-47-124.2-273.9-301.9-588.7-362.3c-353.7-68.6-705.2-8.3-748.3,149c-31.3,113.7,106.1,245.8,319.2,338.6
		c-95.3-77.2-141.9-164.1-115.6-241.5L309.8,1295.9z"/>
	<path class="st0" d="M1444.1,1358.4v-143.6h-87.6v43.6C1393.9,1291.8,1423.4,1325.6,1444.1,1358.4z"/>
</g>
</svg>
