<svg id="Layer_1" data-name="Layer 1" xmlns="http://www.w3.org/2000/svg" xmlns:xlink="http://www.w3.org/1999/xlink" viewBox="0 0 500 500"><defs><style>.cls-1{fill:none;stroke:#8251e9;stroke-linecap:round;stroke-linejoin:round;stroke-width:8.5px;}.cls-2{fill:#8251e9;}.cls-3{fill:url(#radial-gradient);}.cls-4{fill:url(#radial-gradient-2);}.cls-5{fill:url(#radial-gradient-3);}</style><radialGradient id="radial-gradient" cx="186.4" cy="330.79" r="102.5" gradientTransform="translate(-204.62 -556.81) scale(2.44 2.44)" gradientUnits="userSpaceOnUse"><stop offset="0" stop-color="#ad56e3" stop-opacity="0.3"/><stop offset="0.01" stop-color="#ad56e3" stop-opacity="0.29"/><stop offset="0.27" stop-color="#ad56e3" stop-opacity="0.16"/><stop offset="0.52" stop-color="#ad56e3" stop-opacity="0.07"/><stop offset="0.76" stop-color="#ad56e3" stop-opacity="0.02"/><stop offset="1" stop-color="#ad56e3" stop-opacity="0"/></radialGradient><radialGradient id="radial-gradient-2" cx="152.78" cy="302.5" r="52.48" gradientTransform="translate(-204.62 -556.81) scale(2.44 2.44)" gradientUnits="userSpaceOnUse"><stop offset="0" stop-color="#5f78ef" stop-opacity="0.1"/><stop offset="0.17" stop-color="#5f78ef" stop-opacity="0.07"/><stop offset="0.59" stop-color="#5f78ef" stop-opacity="0.02"/><stop offset="1" stop-color="#5f78ef" stop-opacity="0"/></radialGradient><radialGradient id="radial-gradient-3" cx="230.68" cy="322.18" r="52.48" xlink:href="#radial-gradient-2"/></defs><g id="Telescope"><g id="Stand"><circle class="cls-1" cx="249.42" cy="253.21" r="15.36"/><line class="cls-1" x1="256.21" y1="268.34" x2="281.94" y2="320.51"/><line class="cls-1" x1="216.9" y1="320.51" x2="242.63" y2="268.34"/></g><g id="Tube"><path class="cls-2" d="M181.75,176l30.55,10.58-17.63,50.9L164.13,226.9,181.75,176m0-8.51a8.5,8.5,0,0,0-8,5.73l-17.63,50.9a8.51,8.51,0,0,0,5.25,10.82l30.55,10.58a8.72,8.72,0,0,0,2.78.47,8.51,8.51,0,0,0,8-5.73l17.63-50.9a8.51,8.51,0,0,0-5.26-10.82L184.53,168a8.72,8.72,0,0,0-2.78-.47Z"/><path class="cls-1" d="M266.36,257.5l50.07,14.05a7.23,7.23,0,0,0,8.78-4.59l7.9-22.82a7.22,7.22,0,0,0-4.06-9l-97.6-40.39"/><line class="cls-1" x1="214.75" y1="242.94" x2="232.94" y2="248.47"/><line class="cls-1" x1="340.4" y1="268.61" x2="345.96" y2="252.55"/></g></g><g id="Gradients"><circle id="MainGradient" class="cls-3" cx="250" cy="250" r="250"/><circle id="Gradient3" class="cls-4" cx="168" cy="181" r="128"/><circle id="Gradient4" class="cls-5" cx="358" cy="229" r="128"/></g></svg>