<svg id="Layer_1" data-name="Layer 1" xmlns="http://www.w3.org/2000/svg" xmlns:xlink="http://www.w3.org/1999/xlink" viewBox="0 0 500 500"><defs><style>.cls-1{fill:#0c0816;}.cls-2{fill:url(#radial-gradient);}.cls-3{fill:url(#radial-gradient-2);}.cls-4{fill:#8251e9;}.cls-5{fill:none;stroke:#8251e9;stroke-linecap:round;stroke-linejoin:round;stroke-width:8.5px;}</style><radialGradient id="radial-gradient" cx="200.75" cy="345.14" r="88.15" gradientTransform="translate(-204.62 -556.81) scale(2.44 2.44)" gradientUnits="userSpaceOnUse"><stop offset="0" stop-color="#df7bf5" stop-opacity="0.3"/><stop offset="0.05" stop-color="#df7bf5" stop-opacity="0.27"/><stop offset="0.29" stop-color="#df7bf5" stop-opacity="0.15"/><stop offset="0.53" stop-color="#df7bf5" stop-opacity="0.07"/><stop offset="0.77" stop-color="#df7bf5" stop-opacity="0.02"/><stop offset="1" stop-color="#df7bf5" stop-opacity="0"/></radialGradient><radialGradient id="radial-gradient-2" cx="154.42" cy="322.59" r="62.73" gradientTransform="translate(-204.62 -556.81) scale(2.44 2.44)" gradientUnits="userSpaceOnUse"><stop offset="0" stop-color="#8251e9" stop-opacity="0.1"/><stop offset="0.16" stop-color="#8251e9" stop-opacity="0.07"/><stop offset="0.59" stop-color="#8251e9" stop-opacity="0.02"/><stop offset="1" stop-color="#8251e9" stop-opacity="0"/></radialGradient></defs><rect class="cls-1" width="500" height="500"/><g id="Gradients"><circle id="MainGradient" class="cls-2" cx="285" cy="285" r="215"/><circle id="Gradient3" class="cls-3" cx="172" cy="230" r="153"/></g><g id="Chip"><path class="cls-4" d="M279,221v58H221V221h58m0-8.5H221a8.49,8.49,0,0,0-8.5,8.5v58a8.49,8.49,0,0,0,8.5,8.5h58a8.49,8.49,0,0,0,8.5-8.5V221a8.49,8.49,0,0,0-8.5-8.5Z"/><path class="cls-4" d="M279,202a19,19,0,0,1,19,19V279a19,19,0,0,1-19,19H221a19,19,0,0,1-19-19V221a19,19,0,0,1,19-19H279m0-8.5H221A27.57,27.57,0,0,0,193.5,221V279A27.57,27.57,0,0,0,221,306.5H279A27.57,27.57,0,0,0,306.5,279V221A27.57,27.57,0,0,0,279,193.5Z"/><line class="cls-5" x1="197" y1="227" x2="179" y2="227"/><line class="cls-5" x1="197" y1="250" x2="179" y2="250"/><line class="cls-5" x1="197" y1="273" x2="179" y2="273"/><line class="cls-5" x1="303" y1="227" x2="321" y2="227"/><line class="cls-5" x1="303" y1="250" x2="321" y2="250"/><line class="cls-5" x1="303" y1="273" x2="321" y2="273"/><line class="cls-5" x1="227" y1="179.25" x2="227" y2="196.75"/><line class="cls-5" x1="250" y1="179.25" x2="250" y2="196.75"/><line class="cls-5" x1="273" y1="179.25" x2="273" y2="196.75"/><line class="cls-5" x1="227" y1="303.25" x2="227" y2="320.75"/><line class="cls-5" x1="250" y1="303.25" x2="250" y2="320.75"/><line class="cls-5" x1="273" y1="303.25" x2="273" y2="320.75"/></g></svg>