<svg id="Layer_1" data-name="Layer 1" xmlns="http://www.w3.org/2000/svg" xmlns:xlink="http://www.w3.org/1999/xlink" viewBox="0 0 455 479"><defs><style>.cls-1{fill:url(#radial-gradient);}.cls-2{fill:url(#radial-gradient-2);}.cls-3{fill:url(#radial-gradient-3);}.cls-4{fill:none;stroke:#8251e9;stroke-linecap:round;stroke-linejoin:round;stroke-width:8.5px;}.cls-5{fill:#8251e9;}</style><radialGradient id="radial-gradient" cx="168.77" cy="321.36" r="88.15" gradientTransform="translate(-196.62 -568.81) scale(2.44 2.44)" gradientUnits="userSpaceOnUse"><stop offset="0" stop-color="#8251e9" stop-opacity="0.3"/><stop offset="0.03" stop-color="#8251e9" stop-opacity="0.28"/><stop offset="0.28" stop-color="#8251e9" stop-opacity="0.16"/><stop offset="0.52" stop-color="#8251e9" stop-opacity="0.07"/><stop offset="0.77" stop-color="#8251e9" stop-opacity="0.02"/><stop offset="1" stop-color="#8251e9" stop-opacity="0"/></radialGradient><radialGradient id="radial-gradient-2" cx="204.44" cy="366.87" r="62.73" gradientTransform="translate(-196.62 -568.81) scale(2.44 2.44)" gradientUnits="userSpaceOnUse"><stop offset="0" stop-color="#df7bf5" stop-opacity="0.1"/><stop offset="0.18" stop-color="#df7bf5" stop-opacity="0.07"/><stop offset="0.6" stop-color="#df7bf5" stop-opacity="0.02"/><stop offset="1" stop-color="#df7bf5" stop-opacity="0"/></radialGradient><radialGradient id="radial-gradient-3" cx="201.16" cy="289.38" r="40.18" xlink:href="#radial-gradient-2"/></defs><g id="Gradients"><circle id="MainGradient" class="cls-1" cx="215" cy="215" r="215"/><circle id="Gradient3" class="cls-2" cx="302" cy="326" r="153"/><circle id="Gradient3-2" data-name="Gradient3" class="cls-3" cx="294" cy="137" r="98"/></g><g id="Erlen"><path class="cls-4" d="M225.4,231.5h6V270L199,341.31a15,15,0,0,0,13.65,21.19h74.66A15,15,0,0,0,301,341.31L268.6,270V231.5h6" transform="translate(8 -12)"/><circle class="cls-4" cx="230.5" cy="172.5" r="18"/><circle class="cls-4" cx="271.5" cy="134.5" r="9"/><circle class="cls-4" cx="277.5" cy="327.5" r="9"/><circle class="cls-5" cx="268.75" cy="201.75" r="6.25"/><circle class="cls-5" cx="248.75" cy="288.75" r="6.25"/><line class="cls-4" x1="222.5" y1="303.8" x2="293.5" y2="303.5"/></g></svg>