<svg id="Layer_1" data-name="Layer 1" xmlns="http://www.w3.org/2000/svg" xmlns:xlink="http://www.w3.org/1999/xlink" viewBox="0 0 481.72 480"><defs><style>.cls-1{fill:url(#radial-gradient);}.cls-2{fill:url(#radial-gradient-2);}.cls-3{fill:url(#radial-gradient-3);}.cls-4{fill:none;stroke:#8251e9;stroke-linecap:round;stroke-linejoin:round;stroke-width:8.5px;}</style><radialGradient id="radial-gradient" cx="183" cy="331.61" r="98.4" gradientTransform="translate(-204.62 -568.81) scale(2.44 2.44)" gradientUnits="userSpaceOnUse"><stop offset="0" stop-color="#5f78ef" stop-opacity="0.3"/><stop offset="0.04" stop-color="#5f78ef" stop-opacity="0.28"/><stop offset="0.29" stop-color="#5f78ef" stop-opacity="0.16"/><stop offset="0.53" stop-color="#5f78ef" stop-opacity="0.07"/><stop offset="0.77" stop-color="#5f78ef" stop-opacity="0.02"/><stop offset="1" stop-color="#5f78ef" stop-opacity="0"/></radialGradient><radialGradient id="radial-gradient-2" cx="142.23" cy="331.04" r="58.33" gradientTransform="translate(-204.62 -568.81) scale(2.44 2.44)" gradientUnits="userSpaceOnUse"><stop offset="0" stop-color="#b4e2f9" stop-opacity="0.1"/><stop offset="0.19" stop-color="#b4e2f9" stop-opacity="0.07"/><stop offset="0.6" stop-color="#b4e2f9" stop-opacity="0.02"/><stop offset="1" stop-color="#b4e2f9" stop-opacity="0"/></radialGradient><radialGradient id="radial-gradient-3" cx="210.61" cy="349.61" r="42.82" xlink:href="#radial-gradient-2"/></defs><g id="Gradients"><circle id="MainGradient" class="cls-1" cx="241.72" cy="240" r="240"/><circle id="Gradient3" class="cls-2" cx="142.28" cy="238.61" r="142.28"/><circle id="Gradient3-2" data-name="Gradient3" class="cls-3" cx="309.07" cy="283.9" r="104.44"/></g><circle class="cls-4" cx="270.99" cy="166.98" r="12.98"/><path class="cls-4" d="M258,202.1l-15.75,40.15a19,19,0,0,0,6,21.86L286.41,294l-12.54,40" transform="translate(0 -12)"/><path class="cls-4" d="M195.28,213.59l23.19-19.47A109.7,109.7,0,0,1,258,202.05c14.45,5.74,21.24,19.6,24.11,27.93a9.91,9.91,0,0,0,9.37,6.68h16.63" transform="translate(0 -12)"/><polyline class="cls-4" points="231.33 259.27 225.21 274.41 191.88 274.41"/></svg>